<?xml version="1.0" standalone="no"?>
<!DOCTYPE svg PUBLIC "-//W3C//DTD SVG 20010904//EN"
 "http://www.w3.org/TR/2001/REC-SVG-20010904/DTD/svg10.dtd">
<svg version="1.0" xmlns="http://www.w3.org/2000/svg"
 width="2013.000000pt" height="2013.000000pt" viewBox="0 0 2013.000000 2013.000000"
 preserveAspectRatio="xMidYMid meet">
<metadata>
Created by potrace 1.11, written by Peter Selinger 2001-2013
</metadata>
<g transform="translate(0.000000,2013.000000) scale(0.100000,-0.100000)"
fill="#000000" stroke="none">
<path d="M14248 16102 c-1 -4 -50 -49 -108 -101 -166 -150 -283 -255 -300
-271 -8 -8 -101 -91 -205 -185 -105 -93 -210 -188 -235 -211 -25 -23 -97 -87
-160 -144 -63 -57 -138 -124 -166 -149 -103 -93 -211 -191 -231 -208 -21 -19
-157 -141 -196 -177 -34 -30 -192 -173 -257 -231 -31 -27 -98 -88 -150 -135
-129 -117 -133 -121 -171 -155 -89 -79 -345 -309 -349 -314 -3 -3 -43 -40 -90
-81 -47 -41 -90 -79 -96 -85 -6 -5 -51 -46 -100 -90 -48 -44 -95 -87 -104 -95
-9 -8 -56 -51 -106 -95 -49 -44 -109 -98 -134 -121 -25 -23 -97 -88 -160 -144
-63 -56 -155 -139 -204 -184 -49 -44 -98 -89 -110 -99 -11 -10 -42 -37 -67
-60 -25 -23 -78 -71 -119 -107 -40 -36 -85 -76 -100 -90 -15 -14 -65 -59 -111
-100 -46 -41 -108 -97 -139 -125 -55 -49 -218 -197 -269 -244 -33 -29 -157
-140 -185 -164 -12 -10 -59 -53 -105 -95 -46 -42 -91 -84 -101 -92 -54 -48
-166 -147 -179 -161 -9 -8 -63 -58 -121 -110 -58 -51 -110 -98 -116 -104 -6
-5 -46 -41 -89 -80 -44 -38 -89 -79 -101 -90 -12 -11 -57 -51 -100 -90 -43
-38 -85 -77 -94 -85 -9 -8 -54 -49 -100 -90 -47 -41 -90 -79 -96 -85 -6 -5
-51 -46 -99 -90 -49 -44 -99 -89 -111 -100 -46 -42 -102 -93 -194 -175 -52
-47 -97 -87 -100 -90 -3 -3 -50 -45 -105 -95 -55 -49 -116 -103 -135 -121 -19
-18 -44 -41 -56 -51 -12 -10 -56 -49 -98 -88 -43 -38 -88 -79 -100 -90 -28
-25 -192 -173 -222 -200 -12 -11 -37 -33 -55 -50 -151 -134 -235 -210 -239
-215 -3 -3 -48 -43 -100 -90 -52 -46 -100 -89 -106 -95 -17 -16 -174 -158
-224 -201 -24 -21 -51 -46 -60 -54 -9 -8 -49 -44 -89 -80 -40 -36 -88 -78
-105 -95 -17 -16 -71 -66 -121 -109 -49 -44 -94 -85 -100 -90 -5 -6 -48 -45
-95 -86 -46 -41 -91 -82 -100 -90 -9 -8 -55 -50 -103 -93 l-86 -78 1 -62 c0
-34 -3 -210 -6 -392 -4 -181 -9 -438 -11 -570 -3 -132 -7 -350 -10 -485 -4
-221 -10 -525 -20 -1120 -4 -214 -14 -763 -20 -1055 -6 -301 -7 -466 -3 -471
3 -2 13 4 24 14 10 10 64 58 119 107 55 50 105 94 111 100 6 5 48 44 94 85 46
41 91 82 100 90 16 15 151 137 300 270 46 41 88 80 94 86 6 6 56 50 111 99
105 93 164 146 199 180 12 11 82 74 156 140 132 117 190 170 255 230 18 17 59
53 91 81 33 28 70 62 84 76 14 13 65 59 115 103 49 44 99 89 110 100 12 11 59
54 105 95 47 41 111 100 145 130 33 30 65 59 72 65 6 5 29 26 50 45 21 19 73
67 116 105 44 39 89 79 101 90 12 11 62 56 111 100 49 44 112 101 140 126 27
25 68 61 89 80 21 19 44 39 50 45 6 5 38 34 71 64 33 29 100 90 149 134 49 45
98 89 110 99 18 16 129 115 202 182 12 11 37 34 55 50 112 100 335 300 339
305 3 3 50 45 105 94 55 50 102 92 105 95 3 3 45 42 95 86 113 100 173 154
200 180 12 11 41 38 66 59 24 22 82 74 129 116 105 95 303 274 349 315 19 16
39 35 45 40 6 6 56 51 111 100 55 49 118 106 140 126 44 40 228 206 349 314
43 39 88 79 100 90 12 11 62 56 111 100 49 44 119 107 155 139 36 33 85 78
111 100 105 95 224 202 239 216 9 8 76 69 150 135 74 66 137 122 140 125 3 3
77 70 165 149 88 80 180 163 205 185 25 23 68 61 95 86 28 25 93 83 144 130
51 47 103 93 115 103 18 16 52 46 180 162 6 6 56 50 111 99 55 50 105 95 110
100 6 6 51 47 100 91 50 44 104 92 120 107 17 15 42 37 56 50 14 13 50 46 81
73 30 28 90 82 133 120 43 39 88 79 100 90 11 11 41 38 65 59 25 22 86 76 135
121 50 45 105 95 124 112 l34 29 2 150 c2 82 6 311 10 509 3 198 8 452 10 565
3 113 7 349 10 525 3 176 8 424 10 550 3 127 7 363 10 525 5 294 11 621 20
1093 3 147 1 247 -4 247 -5 0 -11 -3 -13 -8z"/>
<path d="M19875 15893 c-132 -118 -276 -248 -320 -288 -44 -40 -100 -90 -124
-111 -24 -22 -53 -48 -65 -59 -12 -11 -60 -54 -106 -95 -47 -41 -134 -120
-195 -175 -60 -55 -153 -138 -205 -185 -52 -47 -115 -103 -140 -126 -81 -73
-174 -158 -265 -239 -49 -44 -96 -87 -105 -95 -9 -8 -76 -69 -150 -135 -74
-66 -144 -129 -156 -140 -12 -11 -57 -51 -100 -90 -43 -38 -106 -95 -139 -125
-34 -30 -103 -93 -155 -140 -51 -47 -102 -93 -114 -103 -12 -10 -55 -49 -96
-86 -41 -38 -95 -86 -119 -107 -24 -22 -60 -54 -80 -73 -20 -18 -56 -51 -81
-73 -46 -41 -105 -94 -310 -279 -63 -57 -131 -117 -150 -135 -19 -17 -62 -55
-95 -85 -33 -30 -75 -68 -94 -84 -19 -17 -50 -45 -70 -63 -19 -19 -64 -59 -99
-90 -36 -31 -74 -66 -86 -77 -87 -79 -220 -199 -271 -244 -33 -30 -83 -75
-110 -100 -28 -25 -86 -77 -129 -116 -44 -38 -94 -83 -111 -100 -18 -16 -66
-59 -106 -95 -41 -36 -83 -74 -95 -85 -11 -11 -40 -38 -65 -59 -24 -22 -82
-74 -129 -116 -47 -42 -137 -123 -200 -180 -63 -57 -151 -136 -195 -176 -44
-40 -91 -82 -105 -94 -14 -12 -45 -40 -70 -63 -25 -24 -108 -99 -185 -167 -77
-69 -145 -129 -151 -135 -6 -5 -51 -46 -99 -90 -49 -44 -99 -89 -111 -100 -12
-11 -52 -47 -90 -80 -37 -33 -72 -65 -78 -70 -27 -25 -382 -345 -412 -372 -20
-17 -147 -132 -198 -178 -12 -11 -60 -54 -106 -95 -113 -102 -198 -179 -236
-215 -18 -16 -45 -41 -61 -54 -28 -25 -208 -186 -229 -206 -6 -5 -44 -39 -84
-75 -40 -36 -85 -76 -100 -90 -15 -14 -62 -56 -106 -95 -43 -38 -104 -93 -134
-121 -59 -54 -83 -76 -260 -234 -63 -57 -155 -140 -204 -184 -110 -100 -94
-86 -201 -181 -49 -44 -102 -92 -119 -107 l-29 -27 -3 -158 c-1 -87 -5 -300
-8 -473 -3 -173 -8 -434 -11 -580 -3 -146 -7 -395 -10 -555 -4 -159 -8 -398
-10 -530 -2 -132 -7 -368 -10 -525 -26 -1352 -26 -1341 -11 -1333 8 4 54 44
102 89 49 45 116 105 150 135 90 80 458 413 464 419 3 3 46 41 95 85 50 44
110 98 135 121 25 22 92 83 150 135 266 239 329 296 380 343 31 28 89 80 129
116 41 36 79 70 85 75 6 6 56 51 111 100 55 49 102 92 105 95 3 3 48 43 99 90
52 47 115 103 139 125 25 22 63 57 86 78 23 22 68 62 100 90 33 29 71 63 86
77 15 14 60 54 100 90 40 36 83 74 94 85 12 11 64 58 116 105 126 113 170 153
184 165 6 6 74 66 151 135 77 69 142 128 145 131 3 3 32 30 65 60 34 30 101
90 149 134 49 44 98 88 110 98 12 10 39 35 61 55 22 21 101 91 175 157 74 66
137 123 140 126 3 3 55 50 115 104 61 54 126 113 145 131 19 18 45 41 57 51
19 17 82 73 248 222 33 30 62 57 65 60 3 3 43 40 90 81 46 41 91 82 100 90 34
31 252 228 399 360 46 41 89 80 95 85 6 6 51 46 101 90 49 44 101 91 116 105
14 14 45 42 69 62 60 53 194 173 265 238 33 31 75 69 94 85 18 17 43 39 55 50
36 33 188 169 200 180 6 6 36 33 67 60 30 28 92 84 139 125 46 41 91 82 100
90 48 44 266 241 303 273 12 10 45 40 72 65 28 26 88 81 135 122 47 41 108 96
135 121 76 70 172 157 259 234 43 38 91 81 106 95 31 29 114 104 156 140 53
47 249 223 254 229 3 3 25 24 50 45 25 21 70 62 100 90 30 28 118 107 195 176
77 69 147 132 155 140 9 8 32 29 51 45 19 17 80 72 136 123 l101 92 2 157 c2
174 5 354 14 818 9 428 16 817 21 1095 2 129 6 379 10 555 3 176 8 419 10 540
2 121 7 373 11 560 7 398 7 425 2 430 -2 2 -111 -93 -243 -212z"/>
<path d="M8600 15853 c-142 -130 -149 -136 -435 -393 -137 -123 -257 -231
-266 -239 -9 -9 -49 -45 -89 -81 -40 -36 -88 -78 -105 -95 -18 -16 -63 -57
-99 -89 -37 -33 -80 -71 -95 -85 -27 -24 -135 -122 -240 -217 -25 -23 -95 -85
-156 -139 -60 -54 -120 -107 -131 -119 -12 -11 -55 -50 -95 -86 -41 -36 -101
-90 -134 -120 -34 -30 -99 -89 -145 -130 -46 -41 -106 -96 -134 -121 -28 -26
-63 -57 -78 -70 -14 -13 -59 -54 -100 -90 -40 -36 -149 -135 -243 -219 -93
-84 -208 -188 -255 -230 -47 -42 -105 -94 -130 -116 -25 -21 -52 -46 -60 -54
-8 -9 -60 -56 -115 -105 -55 -49 -102 -91 -105 -94 -3 -3 -25 -24 -50 -46 -25
-22 -86 -76 -135 -121 -50 -44 -142 -127 -205 -184 -180 -162 -290 -261 -350
-315 -30 -27 -60 -54 -66 -60 -46 -40 -179 -160 -229 -205 -33 -31 -75 -69
-94 -85 -19 -17 -44 -39 -55 -50 -12 -11 -62 -56 -111 -100 -50 -44 -92 -82
-95 -85 -3 -3 -50 -46 -105 -95 -55 -49 -118 -105 -140 -125 -78 -71 -172
-156 -260 -235 -49 -44 -99 -89 -111 -100 -22 -20 -153 -137 -184 -165 -9 -8
-54 -49 -100 -90 -45 -41 -88 -79 -94 -85 -6 -5 -56 -51 -111 -101 -55 -50
-115 -104 -134 -120 -35 -30 -59 -52 -126 -113 -38 -34 -302 -273 -390 -352
-22 -20 -89 -80 -150 -135 -60 -54 -128 -115 -149 -134 -22 -19 -49 -44 -61
-55 -12 -11 -57 -51 -100 -90 -44 -38 -86 -77 -95 -86 -8 -9 -48 -45 -89 -80
-41 -35 -86 -75 -100 -89 -14 -14 -66 -61 -116 -105 -104 -93 -204 -183 -260
-235 -22 -20 -67 -60 -100 -90 -33 -29 -98 -88 -145 -130 -47 -43 -100 -90
-118 -105 -19 -16 -46 -40 -60 -54 -15 -14 -65 -60 -111 -101 -46 -41 -91 -82
-100 -90 -9 -9 -56 -52 -106 -95 -49 -44 -102 -91 -116 -105 -14 -14 -54 -50
-89 -80 -68 -59 -100 -90 -101 -99 0 -3 -2 -76 -4 -161 -3 -141 -6 -280 -20
-1090 -3 -140 -7 -372 -10 -515 -5 -286 -12 -675 -20 -1090 -3 -148 -7 -396
-10 -550 -3 -154 -7 -387 -10 -519 l-4 -238 26 23 c15 13 34 31 43 39 9 8 39
35 66 60 27 25 90 81 139 125 50 44 92 82 95 85 3 3 48 43 100 90 52 47 104
94 115 105 12 11 52 47 89 80 38 33 78 69 90 80 12 11 47 43 77 70 31 28 91
82 134 120 43 39 93 84 110 100 18 17 61 55 95 85 35 30 68 59 74 65 6 6 61
55 121 110 61 55 115 104 121 110 6 5 46 42 90 80 66 60 125 113 204 185 9 8
56 51 106 95 49 44 94 85 100 90 6 6 44 39 84 75 40 36 85 76 100 90 15 14 62
57 105 95 43 39 103 93 134 120 30 28 71 64 91 82 19 17 49 44 66 60 17 15 64
57 104 93 40 36 78 70 84 75 7 6 39 35 72 65 33 30 80 73 104 95 25 22 88 78
140 125 52 47 100 90 106 95 6 6 51 46 100 91 49 45 163 147 254 228 91 82
172 155 180 164 9 10 42 40 75 67 32 28 68 59 80 70 22 21 114 105 181 165 21
19 129 116 239 214 110 99 202 182 205 185 3 3 68 62 145 131 77 69 145 129
151 135 56 51 181 164 199 180 12 11 55 50 96 87 41 36 83 75 95 85 12 10 61
54 110 99 49 44 141 127 204 184 63 57 136 121 161 144 25 23 83 75 129 116
46 41 111 100 144 131 34 31 131 118 216 194 85 76 196 175 245 220 50 45 142
128 205 185 63 57 155 140 204 184 121 109 129 117 167 151 149 133 235 210
239 215 3 3 91 82 195 175 105 93 197 176 206 184 17 18 149 137 189 171 14
12 43 38 65 58 22 21 87 80 145 132 58 52 110 99 116 105 6 5 44 39 84 75 41
36 79 70 85 75 6 6 35 33 65 60 171 155 240 217 263 235 25 20 26 24 27 143 0
67 3 214 5 327 6 292 15 785 20 1060 12 687 24 1338 30 1630 5 253 17 851 18
949 1 36 -3 66 -8 67 -6 2 -57 -40 -115 -93z"/>
</g>
</svg>
