<svg width="273" height="448.78" xmlns="http://www.w3.org/2000/svg">
 <defs>
  <clipPath id="clip-path">
   <path id="svg_1" d="m0,0l327,0l0,463l-327,0l0,-463z" class="cls-1"/>
  </clipPath>
  <clipPath id="clip-path-2">
   <path id="svg_2" d="m0.06,0.3l326.04,0l0,462.64l-326.04,0l0,-462.64z" class="cls-1"/>
  </clipPath>
  <style>.cls-1{fill:none}.cls-2{clip-path:url(#clip-path)}.cls-3{fill:#015a75}.cls-4{fill:#fff}</style>
 </defs>
 <g>
  <title>Layer 1</title>
  <g id="Layer_2">
   <g id="Layer_1-2">
    <g id="svg_3" class="cls-2">
     <path id="svg_4" d="m279.28,427.18l0,-0.12a21.72,21.72 0 0 1 43.44,-0.12l0,0.12a21.72,21.72 0 0 1 -43.44,0.12zm41.46,-0.12l0,-0.12a19.74,19.74 0 1 0 -39.48,0.12l0,0.12a19.74,19.74 0 1 0 39.48,-0.12zm-28.26,-11.76l10,0a9.27,9.27 0 0 1 6.6,2.34a5.86,5.86 0 0 1 1.8,4.32l0,0.12c0,3.6 -2.4,5.76 -5.76,6.54l6.9,8.94l-4.12,0l-6.42,-8.4l-5.7,0l0,8.4l-3.3,0l0,-22.26zm9.66,10.92c3.12,0 5.28,-1.44 5.28,-4l0,-0.12c0,-2.34 -1.92,-3.84 -5.1,-3.84l-6.54,0l0,7.92l6.36,0.04z" class="cls-3"/>
     <path id="svg_5" d="m245.51,447.31l-218.34,0a26,26 0 0 1 -25.76,-26.2l0,-393.48a26,26 0 0 1 25.76,-26.2l218.34,0a26,26 0 0 1 25.76,26.2l0,393.48a26,26 0 0 1 -25.76,26.21" class="cls-4"/>
    </g>
    <path id="svg_6" fill="none" stroke="#005f84" d="m245.51,447.31l-218.34,0a26,26 0 0 1 -25.76,-26.2l0,-393.48a26,26 0 0 1 25.76,-26.2l218.34,0a26,26 0 0 1 25.76,26.2l0,393.48a26,26 0 0 1 -25.76,26.2z"/>
    <g id="svg_7" class="cls-2">
     <path id="svg_8" d="m245.51,0.5a26.93,26.93 0 0 1 26.67,27.13l0,393.48a26.93,26.93 0 0 1 -26.67,27.13l-218.34,0a26.93,26.93 0 0 1 -26.67,-27.13l0,-393.48a26.93,26.93 0 0 1 26.67,-27.13l218.34,0m0,1.85l-218.34,0a25.09,25.09 0 0 0 -24.85,25.28l0,393.48a25.09,25.09 0 0 0 24.85,25.28l218.34,0a25.09,25.09 0 0 0 24.85,-25.28l0,-393.48a25.09,25.09 0 0 0 -24.85,-25.28z" class="cls-3"/>
    </g>
    <path id="svg_9" fill="none" stroke="#015a75" d="m245.51,0.5a26.93,26.93 0 0 1 26.67,27.13l0,393.48a26.93,26.93 0 0 1 -26.67,27.13l-218.34,0a26.93,26.93 0 0 1 -26.67,-27.13l0,-393.48a26.93,26.93 0 0 1 26.67,-27.13l218.34,0m0,1.85l-218.34,0a25.09,25.09 0 0 0 -24.85,25.28l0,393.48a25.09,25.09 0 0 0 24.85,25.28l218.34,0a25.09,25.09 0 0 0 24.85,-25.28l0,-393.48a25.09,25.09 0 0 0 -24.85,-25.28z"/>
    <g id="svg_10" class="cls-2">
     <path id="svg_11" fill="#005f84" d="m263.92,359.7l0,61.84a19,19 0 0 1 -18.82,19.16l-218.35,0a19,19 0 0 1 -18.82,-19.19l0,-61.81l256,0"/>
     <path id="svg_12" d="m272.18,356.19l0,68.87c0,11.77 -8.89,21.33 -19.85,21.33l-230.16,0c-11,0 -19.85,-9.56 -19.85,-21.33l0,-68.87l269.86,0" class="cls-3"/>
     <path id="svg_13" d="m34.71,374.53l4.65,0l9.83,23.51l-5.27,0l-2.1,-5.23l-9.7,0l-2.12,5.23l-5.12,0l9.83,-23.51m5.29,13.74l-3,-7.57l-3,7.57l6,0zm10.25,-1.83l0,-0.06a11.76,11.76 0 0 1 12,-12.07a11.73,11.73 0 0 1 9,3.6l-3.25,3.79a8.41,8.41 0 0 0 -5.87,-2.64c-3.87,0 -6.66,3.27 -6.66,7.27l0,0.07c0,4 2.72,7.33 6.66,7.33c2.62,0 4.23,-1.07 6,-2.73l3.21,3.3a12.06,12.06 0 0 1 -21.18,-7.84m23.62,-0.02l0,-0.06a12.31,12.31 0 0 1 21,-8.47l-3.2,3.79a8.41,8.41 0 0 0 -5.87,-2.64c-3.87,0 -6.65,3.27 -6.65,7.27l0,0.07c0,4 2.72,7.33 6.65,7.33c2.62,0 4.23,-1.07 6,-2.73l3.21,3.3a12.06,12.06 0 0 1 -21.18,-7.84m25.26,-11.76l10.49,0a9.06,9.06 0 0 1 6.69,2.37a7.4,7.4 0 0 1 2,5.33l0,0.07a7.24,7.24 0 0 1 -4.92,7.24l5.6,8.34l-5.9,0l-4.96,-7.47l-4,0l0,7.47l-5,0l0,-23.35m10.16,11.34c2.46,0 3.87,-1.33 3.87,-3.3l0,-0.04c0,-2.2 -1.51,-3.33 -4,-3.33l-5,0l0,6.7l5.13,-0.03z" class="cls-4"/>
     <path id="svg_14" d="m122.67,374.7l17.31,0l0,4.57l-12.29,0l0,4.73l10.82,0l0,4.57l-10.82,0l0,4.91l12.46,0l0,4.56l-17.48,0l0,-23.34" class="cls-4"/>
     <path id="svg_15" d="m144.63,374.7l8.95,0c7.21,0 12.19,5 12.19,11.61l0,0.07c0,6.57 -5,11.67 -12.19,11.67l-8.95,0l0,-23.35m8.95,18.71a6.59,6.59 0 0 0 6.92,-7l0,-0.06a6.65,6.65 0 0 0 -6.92,-7l-3.9,0l0,14.07l3.9,-0.01z" class="cls-4"/>
     <path id="svg_16" d="m170.49,374.7l5.05,0l0,23.34l-5.05,0l0,-23.34zm16.12,4.74l-6.98,0l0,-4.74l19.01,0l0,4.74l-6.98,0l0,18.6l-5.05,0l0,-18.6m15.89,-4.74l17.31,0l0,4.57l-12.29,0l0,4.73l10.82,0l0,4.57l-10.82,0l0,4.91l12.46,0l0,4.56l-17.48,0l0,-23.34" class="cls-4"/>
     <path id="svg_17" d="m224.46,374.7l8.95,0c7.21,0 12.19,5 12.19,11.61l0,0.07c0,6.57 -5,11.67 -12.19,11.67l-8.95,0l0,-23.35m8.95,18.71a6.59,6.59 0 0 0 6.92,-7l0,-0.06a6.65,6.65 0 0 0 -6.92,-7l-3.9,0l0,14.07l3.9,-0.01zm-179.89,12.78l10.66,0a8.2,8.2 0 0 1 6,2.07a5.39,5.39 0 0 1 1.57,4l0,0.07a5.44,5.44 0 0 1 -3,5c2.65,1 4.29,2.6 4.29,5.74l0,0.07c0,4.27 -3.41,6.4 -8.59,6.4l-10.93,0l0,-23.35m9.57,9.44c2.23,0 3.64,-0.73 3.64,-2.47l0,-0.07c0,-1.53 -1.18,-2.4 -3.31,-2.4l-5,0l0,4.93l4.67,0.01zm1.34,9.4c2.23,0 3.57,-0.8 3.57,-2.53l0,-0.06c0,-1.57 -1.15,-2.53 -3.74,-2.53l-5.82,0l0,5.13l5.99,-0.01zm12.39,-5.5l0,-13.34l5,0l0,13.21c0,3.8 1.87,5.77 4.95,5.77s4.95,-1.9 4.95,-5.6l0,-13.38l5,0l0,13.17c0,7.07 -3.9,10.54 -10.06,10.54s-9.93,-3.5 -9.93,-10.37m23.66,6.6l3,-3.64a10.43,10.43 0 0 0 6.85,2.84c2.06,0 3.31,-0.84 3.31,-2.2l0,-0.07c0,-1.3 -0.79,-2 -4.62,-3c-4.62,-1.2 -7.6,-2.5 -7.6,-7.13l0,-0.07c0,-4.24 3.34,-7 8,-7a13.14,13.14 0 0 1 8.52,3l-2.61,3.84a10.66,10.66 0 0 0 -6,-2.3c-1.93,0 -2.95,0.9 -2.95,2l0,0.07c0,1.53 1,2 4.95,3.07c4.65,1.23 7.28,2.93 7.28,7l0,0.07c0,4.64 -3.48,7.24 -8.43,7.24a14.46,14.46 0 0 1 -9.74,-3.73" class="cls-4"/>
     <path id="svg_18" d="m123.16,406.19l5.05,0l0,23.34l-5.05,0l0,-23.34zm10.78,0l4.66,0l10.75,14.37l0,-14.37l4.98,0l0,23.34l-4.29,0l-11.11,-14.84l0,14.84l-4.99,0l0,-23.34m25.89,0l17.31,0l0,4.57l-12.29,0l0,4.73l10.81,0l0,4.57l-10.81,0l0,4.9l12.45,0l0,4.57l-17.47,0l0,-23.34" class="cls-4"/>
     <path id="svg_19" d="m180.22,426.13l3,-3.64a10.43,10.43 0 0 0 6.85,2.84c2.06,0 3.31,-0.84 3.31,-2.2l0,-0.07c0,-1.3 -0.79,-2 -4.62,-3c-4.62,-1.2 -7.6,-2.5 -7.6,-7.13l0,-0.07c0,-4.24 3.34,-7 8,-7a13.14,13.14 0 0 1 8.52,3l-2.62,3.84a10.65,10.65 0 0 0 -6,-2.3c-1.94,0 -3,0.9 -3,2l0,0.07c0,1.53 1,2 4.95,3.07c4.65,1.23 7.28,2.93 7.28,7l0,0.07c0,4.64 -3.47,7.24 -8.42,7.24a14.46,14.46 0 0 1 -9.74,-3.73m20.73,0.01l3,-3.64a10.43,10.43 0 0 0 6.85,2.84c2.07,0 3.31,-0.84 3.31,-2.2l0,-0.07c0,-1.3 -0.79,-2 -4.62,-3c-4.62,-1.2 -7.6,-2.5 -7.6,-7.13l0,-0.07c0,-4.24 3.34,-7 8,-7a13.13,13.13 0 0 1 8.52,3l-2.61,3.84a10.66,10.66 0 0 0 -6,-2.3c-1.93,0 -3,0.9 -3,2l0,0.07c0,1.53 1,2 5,3.07c4.65,1.23 7.28,2.93 7.28,7l0,0.07c0,4.64 -3.47,7.24 -8.42,7.24a14.46,14.46 0 0 1 -9.74,-3.73" class="cls-4"/>
     <path id="svg_20" d="m193.03,223.61l-114.06,0l-4.14,13.69l30.39,0l5.8,18.89l49.97,0l5.78,-18.89l30.4,0l-4.14,-13.69" class="cls-3"/>
     <path id="svg_21" d="m97.58,146.7a27.14,27.14 0 0 0 6,37.81l27.29,19.91a6.8,6.8 0 0 1 1.5,9.46l4.12,3l14.42,-20a27,27 0 0 0 5.14,-15.84a27.49,27.49 0 0 0 -0.34,-4.31a26.93,26.93 0 0 0 -10.8,-17.66l-27.3,-19.91a6.74,6.74 0 0 1 -2.7,-4.42a7.19,7.19 0 0 1 -0.09,-1.09a6.72,6.72 0 0 1 1.28,-4l-4.1,-3l-14.42,20.05m16.42,-80a39.08,39.08 0 0 0 -7.45,23a39.94,39.94 0 0 0 0.49,6.25a39,39 0 0 0 15.67,25.61l34.31,25a20.92,20.92 0 0 1 8.4,13.72a21.24,21.24 0 0 1 0.26,3.34a21,21 0 0 1 -4,12.32l3.29,2.39l27.03,-37.63a39.36,39.36 0 0 0 -8.7,-54.83l-41.4,-30.23a12.13,12.13 0 0 1 -2.69,-16.94l-3.29,-2.39l-21.92,30.39m-70,200.91l31.2,0c7.69,0 13.75,2.13 17.6,6a15.53,15.53 0 0 1 4.61,11.49l0,0.19c0,7.63 -4,11.88 -8.85,14.58c7.79,3 12.6,7.53 12.6,16.61l0,0.22c0,12.35 -10,18.54 -25.19,18.54l-31.97,0l0,-67.63m28,27.33c6.54,0 10.67,-2.12 10.67,-7.15l0,-0.19c0,-4.44 -3.46,-7 -9.71,-7l-14.59,0l0,14.29l13.63,0.05zm4,27.22c6.54,0 10.48,-2.32 10.48,-7.33l0,-0.2c0,-4.54 -3.37,-7.34 -11,-7.34l-17.11,0l0,14.87l17.63,0zm31.6,-54.55l31.25,0c7.7,0 13.75,2.13 17.6,6a15.54,15.54 0 0 1 4.61,11.49l0,0.19c0,7.63 -4,11.88 -8.84,14.58c7.79,3 12.59,7.53 12.59,16.61l0,0.22c0,12.35 -10,18.54 -25.19,18.54l-32,0l0,-67.63m28.07,27.33c6.54,0 10.68,-2.12 10.68,-7.15l0,-0.19c0,-4.44 -3.46,-7 -9.71,-7l-14.66,0l0,14.29l13.69,0.05zm3.94,27.22c6.54,0 10.48,-2.32 10.48,-7.33l0,-0.2c0,-4.54 -3.37,-7.34 -11,-7.34l-17.11,0l0,14.87l17.63,0zm31.62,-54.55l31.25,0c7.69,0 13.75,2.13 17.6,6a15.53,15.53 0 0 1 4.61,11.49l0,0.19c0,7.63 -4,11.88 -8.85,14.58c7.79,3 12.6,7.53 12.6,16.61l0,0.22c0,12.35 -10,18.54 -25.2,18.54l-32,0l0,-67.63m28.07,27.33c6.53,0 10.67,-2.12 10.67,-7.15l0,-0.19c0,-4.44 -3.46,-7 -9.71,-7l-14.62,0l0,14.29l13.66,0.05zm3.94,27.22c6.54,0 10.48,-2.32 10.48,-7.33l0,-0.2c0,-4.54 -3.37,-7.34 -11,-7.34l-17.08,0l0,14.87l17.6,0z" class="cls-3"/>
    </g>
   </g>
  </g>
 </g>
</svg>