<svg xmlns="http://www.w3.org/2000/svg" xmlns:xlink="http://www.w3.org/1999/xlink" viewBox="0 0 833.81 227.69"><defs><style>.cls-1{fill:#050606;}.cls-2{fill:#55d1df;}.cls-3{fill:#9ff6ff;}.cls-4{fill:#9ff5fe;}.cls-5{fill:#2da9b6;}.cls-6{fill:#2da9b5;}.cls-7{fill:url(#New_Gradient_Swatch);}</style><linearGradient id="New_Gradient_Swatch" x1="-129.63" y1="456.78" x2="-128.89" y2="456.78" gradientTransform="matrix(683.63, 0, 0, -77.72, 88948.38, 35613.03)" gradientUnits="userSpaceOnUse"><stop offset="0" stop-color="#333"/><stop offset="1" stop-color="#333"/></linearGradient></defs><g id="Layer_2" data-name="Layer 2"><g id="Layer_1-2" data-name="Layer 1"><path class="cls-1" d="M82,116.46,84.27,119l3.48,3.92c2.61,2.93,5.23,5.85,7.84,8.79,2.77,3.12,5.52,6.25,8.28,9.38.16.19.3.4.53.71.54-1,1-1.77,1.42-2.58q2.46-4.64,4.9-9.27,5.16-9.78,10.33-19.56l9.67-18.23q3.36-6.33,6.7-12.67l11.06-20.88,6.59-12.47,9.67-18.35c1.33-2.52,2.68-5,4-7.55,1.89-3.56,3.77-7.12,5.68-10.66.95-1.76,2-3.47,3-5.2a1.36,1.36,0,0,1,.27-.24c.11.09.25.15.3.25q2.36,4.68,4.69,9.37,4.32,8.65,8.65,17.31l4.87,9.76,10.17,20.37c2.19,4.4,4.4,8.8,6.59,13.2q3.08,6.16,6.15,12.34c.15.31.34.6.58,1l19.44-32.28c1.49,2.13,2.87,4.06,4.22,6,.88,1.29,1.69,2.63,2.55,3.94,1.9,2.89,3.82,5.77,5.73,8.66l9.18,13.93,5.69,8.68,11,16.8,9.79,14.82q3.24,4.91,6.46,9.83l8.94,13.57q3.24,4.92,6.46,9.84l9,13.67q3.24,4.91,6.47,9.83l8.94,13.57,6.52,9.92,8.94,13.58c1,1.49,2,3,3,4.44.1.15.17.31.34.62-.45,0-.78.07-1.11.07l-29.57,0H275.81l-87.86.13q-41.85.06-83.68.09-45.22,0-90.44.13H1.3c-.38,0-.76,0-1.3-.06.63-.88,1.14-1.61,1.67-2.32,1.46-1.93,2.94-3.85,4.39-5.79,1-1.37,2-2.78,3-4.16q3.24-4.4,6.49-8.77,5.05-6.85,10.08-13.7l7.28-9.92,9.95-13.54,7.22-9.82q3.81-5.18,7.61-10.34l7.15-9.75,7.61-10.34q3.92-5.36,7.85-10.69C80.8,117.8,81.37,117.21,82,116.46Zm140.53,52.28-.3.3c-1.9,1.2-3.8,2.39-5.69,3.61l-10.43,6.7-10.6,6.83-10.43,6.71-10.6,6.82-10.15,6.55-10.6,6.83-10.16,6.53c-2.61,1.68-5.23,3.34-7.84,5-.19.12-.34.28-.68.55h37.71c1.86,0,3.71,0,5.57,0a1.46,1.46,0,0,0,1.36-.65c.6-.83,1.24-1.65,1.87-2.47,2.6-3.35,5.19-6.7,7.8-10,3.08-4,6.18-7.92,9.25-11.89s6.31-8.17,9.47-12.25c1.3-1.69,2.65-3.35,4-5,2.16-2.78,4.3-5.58,6.45-8.37l4-5.16.27-.39.11-.24Zm-78.08-30.66-.52-.06.22.28c1.43,1.44,2.83,2.91,4.28,4.33,2.19,2.14,4.4,4.26,6.6,6.39l7.71,7.4,7.42,7.09c.59.57,1.2,1.12,1.79,1.69,1.37,1.35,2.71,2.72,4.1,4.06,1.82,1.75,3.68,3.48,5.5,5.23q3.09,3,6.15,5.93c.74.72,1.45,1.48,2.2,2.19.92.87,1.88,1.73,2.83,2.6.29-.16.51-.27.72-.4l4.75-3.07,10-6.41,11-7c1.35-.87,2.73-1.69,4.07-2.56,1.07-.69,2.11-1.42,3.15-2.12.44.24.79.42,1.12.63,2.76,1.69,5.51,3.41,8.28,5.1q5.65,3.43,11.34,6.84c2.78,1.68,5.57,3.33,8.35,5,.58.34,1.17.68,1.74,1q3.42,2.07,6.82,4.16c.47-.57.92-1.12,1.38-1.66,1.46-1.71,2.91-3.42,4.37-5.12a1.09,1.09,0,0,0,.25-1.16c-.39-1.23-.68-2.48-1-3.71L265,160q-5.36-20-10.73-40l-7.06-26.32q-2.68-10-5.38-20l-3.21-12a4.28,4.28,0,0,0-.28-.6c-.74,1.18-1.42,2.25-2.08,3.35q-4.36,7.29-8.73,14.59c-2.13,3.54-4.26,7.09-6.42,10.61a1.1,1.1,0,0,0,0,1.26c1.24,2.33,2.43,4.68,3.64,7,1.94,3.77,3.87,7.54,5.82,11.3,1.49,2.88,3,5.74,4.51,8.62,2.54,4.9,5.06,9.82,7.6,14.72,2,3.92,4.09,7.83,6.12,11.75q3.18,6.12,6.34,12.24c1.25,2.41,2.49,4.81,3.71,7.23.36.71.66,1.45,1,2.31a10.75,10.75,0,0,1-1.11-.18l-3.74-.89-12-3-14.1-3.49-13.58-3.36-13-3.2c-4.77-1.18-9.53-2.37-14.31-3.53-3.29-.8-6.59-1.55-9.87-2.38-1.65-.41-3.26-1-4.91-1.42-4.09-1-8.18-1.91-12.28-2.84-3.89-.88-7.79-1.73-11.68-2.61C147.71,138.84,146.09,138.45,144.46,138.08Zm29.15,4.43c0-.35.08-.56.09-.77.07-3.24.15-6.49.22-9.74.07-3.43.13-6.85.19-10.28.09-4.5.16-9,.24-13.49s.14-9,.23-13.49c.13-6.32.28-12.64.41-19,.07-3.6.14-7.21.2-10.81q.12-6.11.23-12.21c.06-3.5.14-7,.2-10.49q.12-6.59.23-13.17c.08-4.75.18-9.5.26-14.24,0-1.09,0-2.17,0-3.25a1.92,1.92,0,0,0-.67.74c-1,1.79-1.92,3.58-2.86,5.38Q168.76,25,165,32.2l-6.85,12.95q-3.6,6.8-7.21,13.59l-7.14,13.52q-3.54,6.7-7.09,13.42l-7,13.32-5.36,10.1q-4.44,8.41-8.89,16.82-3.95,7.47-7.93,14.91c-.81,1.53-1.66,3-2.59,4.75L83.23,121.16l-.25.07q-1,34.17-2,68.33c0,.81,0,1.61,0,2.42l.26.08c2-2.63,3.76-5.4,5.66-8.1s3.81-5.48,5.82-8.37l5.19,6.17c1.53-1.67,3-3.23,4.42-4.81l7.74-8.57,7-7.76c1.72-1.9,3.42-3.81,5.15-5.7,1.44-1.58,2.92-3.13,4.36-4.71,2.61-2.87,5.2-5.77,7.81-8.64,1.92-2.12,3.86-4.2,5.77-6.31a.86.86,0,0,1,.94-.32c.79.22,1.57.46,2.37.65q7.48,1.74,15,3.45c3.79.86,7.58,1.69,11.37,2.55C171.09,141.86,172.28,142.18,173.61,142.51Zm4.94-131.94-.22.08c0,.24,0,.48-.05.72q-.21,10.56-.42,21.1-.24,12.81-.45,25.6c0,1.79,0,3.57-.08,5.36-.1,5.35-.23,10.71-.33,16.06-.11,5.93-.19,11.86-.3,17.78-.18,8.72-.38,17.43-.55,26.14q-.15,7.28-.26,14.56c0,1.4,0,2.79,0,4.18,0,1-.07,1,.88,1.27,2.93.75,5.87,1.49,8.8,2.22l13.8,3.41,13.8,3.41,13.59,3.34,4.68,1.14,14.73,3.63,7.56,1.9c.73.19,1.47.36,2.38.57-1.48-2.88-2.85-5.57-4.24-8.25-1.54-3-3.11-5.94-4.65-8.91-1.93-3.73-3.84-7.48-5.77-11.21-2.05-3.95-4.13-7.89-6.18-11.84-2.53-4.87-5-9.75-7.55-14.62-2.34-4.53-4.71-9-7-13.58s-4.59-9.08-6.87-13.64l-7.13-14.23c-1.95-3.89-3.92-7.76-5.86-11.66q-6-12.1-12-24.22c-2-4.05-4.07-8.08-6.1-12.13-.75-1.49-1.47-3-2.22-4.5C179.82,13,179.18,11.79,178.55,10.57Zm62.86,52.12-.21,0a4.31,4.31,0,0,0,.1.61l5,18.76c1.49,5.54,3,11.08,4.45,16.61q3.63,13.52,7.25,27,2.59,9.6,5.19,19.18,2.38,8.88,4.75,17.75c1.18,4.43,2.41,8.86,3.53,13.31a7.41,7.41,0,0,0,2.61,4.23c2.29,1.86,4.43,3.9,6.63,5.86l7.82,6.95c2.19,1.94,4.39,3.85,6.57,5.8,2.89,2.58,5.76,5.19,8.65,7.78,2.33,2.08,4.67,4.17,7,6.24q3.94,3.51,7.92,7c1.71,1.51,3.45,3,5.14,4.5a2.19,2.19,0,0,0,1.61.66c3.25,0,6.5,0,9.75,0h12c.26,0,.52-.05.89-.09-.67-1-1.25-2-1.85-2.88q-3.22-4.92-6.46-9.83Q336.4,207,333,201.78L326.52,192q-4.41-6.71-8.81-13.4-3.34-5.1-6.71-10.18l-7.36-11.15-8-12.25L289,134.9q-4.43-6.71-8.82-13.4c-2.2-3.33-4.38-6.68-6.57-10Q270,106,266.39,100.61c-1.12-1.69-2.26-3.38-3.38-5.08-1.72-2.62-3.42-5.25-5.14-7.87-1.27-1.93-2.57-3.85-3.85-5.79-1.7-2.59-3.38-5.19-5.08-7.78q-2-3-3.93-6C243.82,66.29,242.61,64.49,241.41,62.69ZM132.83,223.9l8-5.17,10-6.48,10.58-6.82,5.12-3.29L177,195.37l5.21-3.34,7.83-5c.24-.15.45-.32.74-.53l-50.2-48.4c-1.09,1.17-2.15,2.28-3.17,3.42-2.36,2.61-4.7,5.25-7.06,7.86q-3.07,3.42-6.17,6.81c-2,2.19-4,4.36-6,6.55-2.38,2.61-4.74,5.23-7.11,7.84-1.7,1.87-3.38,3.75-5.08,5.62-1.56,1.71-3.14,3.41-4.7,5.13-.66.72-1.3,1.46-1.94,2.18.72.91,1.38,1.76,2,2.58l8.46,10.18c1.81,2.19,3.6,4.4,5.42,6.59q4.34,5.2,8.68,10.41c1.77,2.13,3.51,4.3,5.28,6.43C130.44,221.09,131.62,222.46,132.83,223.9ZM80.8,122l-.25-.09-2.87,3.94-7.34,10L62.87,146q-3.73,5.07-7.46,10.16c-2.45,3.33-4.91,6.65-7.35,10l-10,13.53q-3.63,4.95-7.27,9.91-3.89,5.29-7.79,10.58c-1.34,1.81-2.69,3.6-4,5.41-2.74,3.73-5.45,7.48-8.19,11.22-2,2.67-3.94,5.32-5.91,8-.11.15-.2.33-.38.63H46.89c3.5,0,7-.05,10.5-.05a1.44,1.44,0,0,0,1.41-.72c.54-.88,1.14-1.71,1.73-2.56q3.47-5,6.94-10,5.43-7.82,10.87-15.6a2.42,2.42,0,0,0,.47-1.38c0-2,.12-4.07.17-6.1q.12-4.81.23-9.63c0-1.29,0-2.58.07-3.86.1-3.17.25-6.35.34-9.52s.15-6.42.22-9.63c0-1.32,0-2.65.09-4,.1-3.31.23-6.63.33-10s.17-6.49.25-9.74l.09-3.85Q80.71,125.37,80.8,122ZM182,225.14h39.34c3.1,0,6.21-.05,9.32-.05a1.52,1.52,0,0,0,1.33-.66c1.56-1.94,3.16-3.83,4.77-5.74,1.48-1.76,3-3.51,4.48-5.28,2.41-2.86,4.79-5.72,7.2-8.58,1.55-1.85,3.14-3.68,4.69-5.53,2.18-2.59,4.34-5.19,6.51-7.78l2.88-3.43c-1.5-.93-2.88-1.8-4.27-2.64-2.31-1.41-4.63-2.8-6.94-4.2-1.4-.85-2.79-1.71-4.19-2.55q-5.81-3.51-11.62-7l-5-3.05-3.24-1.88c-.27.31-.48.54-.68.8-2.17,2.81-4.34,5.64-6.52,8.45-1.71,2.23-3.44,4.45-5.16,6.68q-5.29,6.83-10.6,13.66c-2.31,3-4.65,6-7,8.93q-1.35,1.73-2.69,3.46L185,221.19C184.06,222.45,183.11,223.72,182,225.14Zm90.47-43.5c-1.44,14.23-2.86,28.23-4.27,42.22,0,.34,0,.69,0,1a3.2,3.2,0,0,0,.53.09l52.05-.07s.05,0,.07-.06a.42.42,0,0,0,0-.1c-.91-.83-1.83-1.68-2.75-2.5l-7.73-6.89-7.4-6.61L295.38,202,288,195.44,278.52,187ZM130.89,225.17a2.54,2.54,0,0,0-.18-.37q-3.84-4.67-7.69-9.31l-8.31-10c-1.86-2.25-3.71-4.5-5.58-6.74-2.84-3.43-5.69-6.84-8.53-10.27-1.82-2.19-3.62-4.4-5.43-6.59-.33-.4-.71-.76-1.17-1.26a6.6,6.6,0,0,0-.15.87c.07,1.68.15,3.35.23,5,.18,4,.38,8.06.55,12.09s.31,8.27.46,12.41.31,8.27.48,12.4c0,.6.11,1.19.17,1.78Zm-37.39,0a10.72,10.72,0,0,0,0-1.1c0-.92-.13-1.84-.17-2.77-.14-3.38-.27-6.77-.41-10.15-.09-2.57-.17-5.14-.28-7.7-.18-4.1-.39-8.2-.56-12.3-.12-2.88-.19-5.77-.29-8.66a12.87,12.87,0,0,0-.19-1.4c-.33.42-.51.63-.66.86-1,1.41-1.92,2.83-2.89,4.24-2.35,3.4-4.69,6.8-7,10.2L72.92,208q-4.89,7-9.76,14.05c-.68,1-1.34,2-2,3C62.09,225.43,91.08,225.46,93.5,225.12Zm176.74-42.29-.32-.15a2.71,2.71,0,0,1-.21.37l-5.28,6.29q-2.9,3.43-5.78,6.86T253,202.9c-1.88,2.23-3.75,4.47-5.64,6.69q-4.44,5.26-8.9,10.52l-3.66,4.32a4.28,4.28,0,0,0-.33.59c.66,0,1.22.12,1.77.12l20-.08,8.56,0c.38,0,.75-.06,1.14-.09C267.41,210.83,268.82,196.83,270.24,182.83Z"/><path class="cls-2" d="M173.61,142.51c-1.33-.33-2.52-.65-3.73-.92-3.79-.86-7.58-1.69-11.37-2.55q-7.5-1.71-15-3.45c-.8-.19-1.58-.43-2.37-.65a.86.86,0,0,0-.94.32c-1.91,2.11-3.85,4.19-5.77,6.31-2.61,2.87-5.2,5.77-7.81,8.64-1.44,1.58-2.92,3.13-4.36,4.71-1.73,1.89-3.43,3.8-5.15,5.7l-7,7.76L102.35,177c-1.44,1.58-2.89,3.14-4.42,4.81l-5.19-6.17c-2,2.89-3.9,5.65-5.82,8.37s-3.68,5.47-5.66,8.1L81,192c0-.81,0-1.61,0-2.42q1-34.17,2-68.33l.25-.07,21.62,24.42c.93-1.7,1.78-3.22,2.59-4.75q4-7.44,7.93-14.91,4.45-8.4,8.89-16.82L129.62,99l7-13.32q3.54-6.72,7.09-13.42l7.14-13.52q3.61-6.8,7.21-13.59L165,32.2q3.81-7.23,7.62-14.47c.94-1.8,1.9-3.59,2.86-5.38a1.92,1.92,0,0,1,.67-.74c0,1.08,0,2.16,0,3.25-.08,4.74-.18,9.49-.26,14.24q-.12,6.59-.23,13.17c-.06,3.5-.14,7-.2,10.49q-.12,6.1-.23,12.21c-.06,3.6-.13,7.21-.2,10.81-.13,6.32-.28,12.64-.41,19q-.14,6.74-.23,13.49c-.08,4.5-.15,9-.24,13.49-.06,3.43-.12,6.85-.19,10.28-.07,3.25-.15,6.5-.22,9.74C173.69,142,173.65,142.16,173.61,142.51Z"/><path class="cls-3" d="M178.55,10.57c.63,1.22,1.27,2.44,1.88,3.68.75,1.5,1.47,3,2.22,4.5,2,4.05,4.08,8.08,6.1,12.13q6,12.11,12,24.22c1.94,3.9,3.91,7.77,5.86,11.66L213.77,81q3.42,6.84,6.87,13.64c2.32,4.54,4.69,9.05,7,13.58,2.52,4.87,5,9.75,7.55,14.62,2.05,4,4.13,7.89,6.18,11.84,1.93,3.73,3.84,7.48,5.77,11.21,1.54,3,3.11,5.93,4.65,8.91,1.39,2.68,2.76,5.37,4.24,8.25-.91-.21-1.65-.38-2.38-.57l-7.56-1.9-14.73-3.63-4.68-1.14-13.59-3.34-13.8-3.41-13.8-3.41c-2.93-.73-5.87-1.47-8.8-2.22-.95-.23-.91-.24-.88-1.27,0-1.39,0-2.78,0-4.18q.12-7.28.26-14.56c.17-8.71.37-17.42.55-26.14.11-5.92.19-11.85.3-17.78.1-5.35.23-10.71.33-16.06,0-1.79,0-3.57.08-5.36q.21-12.8.45-25.6.19-10.54.42-21.1c0-.24,0-.48.05-.72Z"/><path class="cls-4" d="M241.41,62.69c1.2,1.8,2.41,3.6,3.6,5.41q2,3,3.93,6c1.7,2.59,3.38,5.19,5.08,7.78,1.28,1.94,2.58,3.86,3.85,5.79,1.72,2.62,3.42,5.25,5.14,7.87,1.12,1.7,2.26,3.39,3.38,5.08q3.6,5.44,7.19,10.88c2.19,3.33,4.37,6.68,6.57,10q4.39,6.7,8.82,13.4L295.61,145l8,12.25L311,168.38q3.36,5.09,6.71,10.18,4.41,6.69,8.81,13.4l6.46,9.82q3.4,5.17,6.82,10.36Q343,217,346.26,222c.6.91,1.18,1.84,1.85,2.88-.37,0-.63.09-.89.09h-12c-3.25,0-6.5,0-9.75,0a2.19,2.19,0,0,1-1.61-.66c-1.69-1.52-3.43-3-5.14-4.5q-4-3.48-7.92-7c-2.34-2.07-4.68-4.16-7-6.24-2.89-2.59-5.76-5.2-8.65-7.78-2.18-1.95-4.38-3.86-6.57-5.8l-7.82-6.95c-2.2-2-4.34-4-6.63-5.86a7.41,7.41,0,0,1-2.61-4.23c-1.12-4.45-2.35-8.88-3.53-13.31q-2.37-8.88-4.75-17.75-2.58-9.58-5.19-19.18-3.63-13.5-7.25-27c-1.49-5.53-3-11.07-4.45-16.61l-5-18.76a4.31,4.31,0,0,1-.1-.61Z"/><path class="cls-3" d="M132.83,223.9c-1.21-1.44-2.39-2.81-3.55-4.2-1.77-2.13-3.51-4.3-5.28-6.43q-4.34-5.22-8.68-10.41c-1.82-2.19-3.61-4.4-5.42-6.59l-8.46-10.18c-.67-.82-1.33-1.67-2-2.58.64-.72,1.28-1.46,1.94-2.18,1.56-1.72,3.14-3.42,4.7-5.13,1.7-1.87,3.38-3.75,5.08-5.62,2.37-2.61,4.73-5.23,7.11-7.84,2-2.19,4-4.36,6-6.55s4.12-4.53,6.17-6.81c2.36-2.61,4.7-5.25,7.06-7.86,1-1.14,2.08-2.25,3.17-3.42l50.2,48.4c-.29.21-.5.38-.74.53l-7.83,5L177,195.37l-10.49,6.77-5.12,3.29-10.58,6.82-10,6.48Z"/><path class="cls-2" d="M144.46,138.08c1.63.37,3.25.76,4.88,1.12,3.89.88,7.79,1.73,11.68,2.61,4.1.93,8.19,1.85,12.28,2.84,1.65.4,3.26,1,4.91,1.42,3.28.83,6.58,1.58,9.87,2.38,4.78,1.16,9.54,2.35,14.31,3.53l13,3.2,13.58,3.36L243,162l12,3,3.74.89a10.75,10.75,0,0,0,1.11.18c-.38-.86-.68-1.6-1-2.31-1.22-2.42-2.46-4.82-3.71-7.23q-3.16-6.12-6.34-12.24c-2-3.92-4.09-7.83-6.12-11.75-2.54-4.9-5.06-9.82-7.6-14.72-1.49-2.88-3-5.74-4.51-8.62-2-3.76-3.88-7.53-5.82-11.3-1.21-2.34-2.4-4.69-3.64-7a1.1,1.1,0,0,1,0-1.26c2.16-3.52,4.29-7.07,6.42-10.61q4.38-7.29,8.73-14.59c.66-1.1,1.34-2.17,2.08-3.35a4.28,4.28,0,0,1,.28.6l3.21,12q2.68,10,5.38,20L254.29,120q5.37,20,10.73,40l4,14.76c.33,1.23.62,2.48,1,3.71a1.09,1.09,0,0,1-.25,1.16c-1.46,1.7-2.91,3.41-4.37,5.12-.46.54-.91,1.09-1.38,1.66q-3.4-2.08-6.82-4.16c-.57-.36-1.16-.7-1.74-1-2.78-1.67-5.57-3.32-8.35-5q-5.67-3.41-11.34-6.84c-2.77-1.69-5.52-3.41-8.28-5.1-.33-.21-.68-.39-1.12-.63-1,.7-2.08,1.43-3.15,2.12-1.34.87-2.72,1.69-4.07,2.56l-11,7-10,6.41-4.75,3.07c-.21.13-.43.24-.72.4-1-.87-1.91-1.73-2.83-2.6-.75-.71-1.46-1.47-2.2-2.19q-3.06-3-6.15-5.93c-1.82-1.75-3.68-3.48-5.5-5.23-1.39-1.34-2.73-2.71-4.1-4.06-.59-.57-1.2-1.12-1.79-1.69l-7.42-7.09L155,149c-2.2-2.13-4.41-4.25-6.6-6.39-1.45-1.42-2.85-2.89-4.28-4.33Z"/><path class="cls-4" d="M80.8,122q-.09,3.42-.2,6.84l-.09,3.85c-.08,3.25-.15,6.5-.25,9.74s-.23,6.64-.33,10c-.05,1.32-.06,2.65-.09,4-.07,3.21-.13,6.42-.22,9.63s-.24,6.35-.34,9.52c0,1.28,0,2.57-.07,3.86q-.1,4.81-.23,9.63c0,2-.12,4.06-.17,6.1a2.42,2.42,0,0,1-.47,1.38q-5.46,7.79-10.87,15.6-3.48,5-6.94,10c-.59.85-1.19,1.68-1.73,2.56a1.44,1.44,0,0,1-1.41.72c-3.5,0-7,.05-10.5.05H4.55c.18-.3.27-.48.38-.63,2-2.67,4-5.32,5.91-8,2.74-3.74,5.45-7.49,8.19-11.22,1.33-1.81,2.68-3.6,4-5.41q3.9-5.28,7.79-10.58,3.65-5,7.27-9.91l10-13.53c2.44-3.33,4.9-6.65,7.35-10s5-6.78,7.46-10.16l7.47-10.15,7.34-10,2.87-3.94Z"/><path class="cls-4" d="M182,225.14c1.08-1.42,2-2.69,3-3.95l9.62-12.42q1.34-1.74,2.69-3.46c2.32-3,4.66-5.95,7-8.93q5.31-6.82,10.6-13.66c1.72-2.23,3.45-4.45,5.16-6.68,2.18-2.81,4.35-5.64,6.52-8.45.2-.26.41-.49.68-.8l3.24,1.88,5,3.05q5.81,3.5,11.62,7c1.4.84,2.79,1.7,4.19,2.55,2.31,1.4,4.63,2.79,6.94,4.2,1.39.84,2.77,1.71,4.27,2.64l-2.88,3.43c-2.17,2.59-4.33,5.19-6.51,7.78-1.55,1.85-3.14,3.68-4.69,5.53-2.41,2.86-4.79,5.72-7.2,8.58-1.49,1.77-3,3.52-4.48,5.28-1.61,1.91-3.21,3.8-4.77,5.74a1.52,1.52,0,0,1-1.33.66c-3.11,0-6.22.05-9.32.05H182Z"/><path class="cls-5" d="M222.46,169.3l-4,5.16c-2.15,2.79-4.29,5.59-6.45,8.37-1.31,1.69-2.66,3.35-4,5-3.16,4.08-6.3,8.18-9.47,12.25S192.45,208,189.37,212c-2.61,3.34-5.2,6.69-7.8,10-.63.82-1.27,1.64-1.87,2.47a1.46,1.46,0,0,1-1.36.65c-1.86,0-3.71,0-5.57,0H135.06c.34-.27.49-.43.68-.55,2.61-1.67,5.23-3.33,7.84-5l10.16-6.53,10.6-6.83,10.15-6.55,10.6-6.82,10.43-6.71,10.6-6.83,10.43-6.7c1.89-1.22,3.79-2.41,5.69-3.61Z"/><path class="cls-2" d="M272.5,181.64l6,5.38,9.51,8.42,7.35,6.51,7.66,6.82,7.4,6.61,7.73,6.89c.92.82,1.84,1.67,2.75,2.5a.42.42,0,0,1,0,.1s0,.06-.07.06l-52.05.07a3.2,3.2,0,0,1-.53-.09c0-.36,0-.71,0-1C269.64,209.87,271.06,195.87,272.5,181.64Z"/><path class="cls-2" d="M130.89,225.17H95.74c-.06-.59-.15-1.18-.17-1.78-.17-4.13-.32-8.27-.48-12.4s-.29-8.28-.46-12.41-.37-8.06-.55-12.09c-.08-1.67-.16-3.34-.23-5a6.6,6.6,0,0,1,.15-.87c.46.5.84.86,1.17,1.26,1.81,2.19,3.61,4.4,5.43,6.59,2.84,3.43,5.69,6.84,8.53,10.27,1.87,2.24,3.72,4.49,5.58,6.74l8.31,10q3.86,4.65,7.69,9.31A2.54,2.54,0,0,1,130.89,225.17Z"/><path class="cls-6" d="M93.5,225.12c-2.42.34-31.41.31-32.35-.05.67-1,1.33-2,2-3Q68,215,72.92,208l8.13-11.67c2.36-3.4,4.7-6.8,7-10.2,1-1.41,1.92-2.83,2.89-4.24.15-.23.33-.44.66-.86a12.87,12.87,0,0,1,.19,1.4c.1,2.89.17,5.78.29,8.66.17,4.1.38,8.2.56,12.3.11,2.56.19,5.13.28,7.7.14,3.38.27,6.77.41,10.15,0,.93.13,1.85.17,2.77A10.72,10.72,0,0,1,93.5,225.12Z"/><path class="cls-6" d="M270.24,182.83c-1.42,14-2.83,28-4.26,42.11-.39,0-.76.08-1.14.09l-8.56,0-20,.08c-.55,0-1.11-.08-1.77-.12a4.28,4.28,0,0,1,.33-.59l3.66-4.32q4.46-5.25,8.9-10.52c1.89-2.22,3.76-4.46,5.64-6.69s3.75-4.47,5.63-6.7,3.85-4.57,5.78-6.86l5.28-6.29a2.71,2.71,0,0,0,.21-.37Z"/><path class="cls-2" d="M144.16,138.3l-.22-.28.52.06Z"/><path class="cls-5" d="M222.24,169l.3-.3.19.17-.27.39Z"/><path class="cls-5" d="M222.54,168.74l.3-.07a2.56,2.56,0,0,1-.11.24Z"/><path class="cls-7" d="M422.39,109.81,410,82.14H352.24l-12.43,27.67h-11.4L375.77,6.22h10.8l47.36,103.59ZM356.24,73.26H406L381.1,17.61Zm102.7-26.05a25.44,25.44,0,0,1,11-11.84q7.32-4,18.13-4h0V41.59l-2.52-.15q-12.29,0-19.24,7.55t-7,21.16h0v39.66h-10.5V32h10.06Zm79.62,63.34a42,42,0,0,1-20.64-5,36.51,36.51,0,0,1-14.29-14.14,40.7,40.7,0,0,1-5.18-20.49h0a40.35,40.35,0,0,1,5.18-20.43,36.62,36.62,0,0,1,14.29-14.05,41.84,41.84,0,0,1,20.64-5h0a39.9,39.9,0,0,1,18,3.93,29.79,29.79,0,0,1,12.51,11.47h0l-7.85,5.32a24.54,24.54,0,0,0-9.76-8.65,28.93,28.93,0,0,0-12.88-2.89h0a30.56,30.56,0,0,0-15.17,3.77,26.62,26.62,0,0,0-10.51,10.73,32.76,32.76,0,0,0-3.77,15.84h0a32.62,32.62,0,0,0,3.77,15.91,26.66,26.66,0,0,0,10.51,10.65,30.46,30.46,0,0,0,15.17,3.78h0a29.57,29.57,0,0,0,12.88-2.82,23.92,23.92,0,0,0,9.76-8.58h0l7.85,5.33a29.86,29.86,0,0,1-12.58,11.47,40.18,40.18,0,0,1-17.91,3.92Zm89.24-13,3.7,7.54a19.73,19.73,0,0,1-7.33,4.07,29.4,29.4,0,0,1-9.1,1.41h0q-11,0-16.87-5.92t-5.92-16.72h0V40.85H578.37V32h13.91V15h10.51V32h23.68v8.88H602.79V87.31q0,7,3.48,10.59t10,3.62h0a19.38,19.38,0,0,0,6.29-1,15.68,15.68,0,0,0,5.25-3Zm22.79,12.28V32H661.1v77.84ZM655.92,15a7.45,7.45,0,0,1-5.48-2.22,7.27,7.27,0,0,1-2.22-5.33h0a7.1,7.1,0,0,1,2.22-5.18A7.45,7.45,0,0,1,655.92,0h0a7.57,7.57,0,0,1,5.47,2.15,6.85,6.85,0,0,1,2.22,5.1h0a7.45,7.45,0,0,1-2.22,5.48A7.43,7.43,0,0,1,655.92,15Zm66.74,95.6a42,42,0,0,1-20.64-5,36.42,36.42,0,0,1-14.28-14.14,40.6,40.6,0,0,1-5.18-20.49h0a40.25,40.25,0,0,1,5.18-20.43A36.53,36.53,0,0,1,702,36.41a41.87,41.87,0,0,1,20.64-5h0a39.9,39.9,0,0,1,18,3.93,29.79,29.79,0,0,1,12.51,11.47h0l-7.85,5.32a24.54,24.54,0,0,0-9.76-8.65,28.93,28.93,0,0,0-12.88-2.89h0a30.56,30.56,0,0,0-15.17,3.77A26.62,26.62,0,0,0,697,55.05a32.76,32.76,0,0,0-3.77,15.84h0A32.62,32.62,0,0,0,697,86.8a26.66,26.66,0,0,0,10.51,10.65,30.46,30.46,0,0,0,15.17,3.78h0a29.57,29.57,0,0,0,12.88-2.82,23.92,23.92,0,0,0,9.76-8.58h0l7.85,5.33a29.8,29.8,0,0,1-12.58,11.47,40.18,40.18,0,0,1-17.91,3.92ZM367.79,227V132.82H331.38v-9.47h83.76v9.47h-36.4V227Zm102.26-78.44q14.65,0,23.31,8.51T502,181.81h0V227H491.51V182.84q0-12.14-6.07-18.49T468.13,158h0q-12.58,0-19.91,7.48t-7.33,20.64h0V227h-10.5V117.14h10.5v45.58a28.57,28.57,0,0,1,11.84-10.51,38.86,38.86,0,0,1,17.32-3.7Zm70.59,15.84a25.44,25.44,0,0,1,11-11.84q7.32-4,18.13-4h0v10.21l-2.52-.15q-12.28,0-19.24,7.55t-7,21.16h0V227h-10.5V149.1h10.06ZM655.93,188l-.15,3.26H590.66q.89,12.14,9.33,19.61t21.31,7.47h0a33.56,33.56,0,0,0,13.32-2.59,29,29,0,0,0,10.5-7.62h0L651,215a33.34,33.34,0,0,1-12.95,9.47A43.78,43.78,0,0,1,621,227.69h0a43.29,43.29,0,0,1-21.24-5.11,36.92,36.92,0,0,1-14.43-14.13A40.35,40.35,0,0,1,580.15,188h0a41.79,41.79,0,0,1,5-20.42,36,36,0,0,1,13.62-14.06,38.05,38.05,0,0,1,19.46-5h0a37.69,37.69,0,0,1,19.39,5,35.67,35.67,0,0,1,13.46,14A42.06,42.06,0,0,1,655.93,188Zm-37.74-30.48a26.45,26.45,0,0,0-18.87,7.18q-7.62,7.17-8.66,18.72h55.2q-1-11.55-8.65-18.72t-19-7.18Zm84.21-9q15.24,0,23.38,7.62t8.14,22.57h0V227H723.85V214.81a24,24,0,0,1-10.43,9.47,36.51,36.51,0,0,1-16.35,3.41h0q-13,0-20.72-6.22a20.07,20.07,0,0,1-7.7-16.43h0a19.91,19.91,0,0,1,7.18-16Q683,183,698.7,183h24.71v-4.73q0-10.06-5.62-15.32t-16.43-5.25h0a41.74,41.74,0,0,0-14.21,2.44,35.87,35.87,0,0,0-11.69,6.73h0L670.73,159a41.76,41.76,0,0,1,14.2-7.77,55.23,55.23,0,0,1,17.47-2.74Zm-3.7,70.89a27.7,27.7,0,0,0,15.24-4.07,24.35,24.35,0,0,0,9.47-11.77h0V190.84H699q-20,0-20,13.91h0a12.74,12.74,0,0,0,5.18,10.73q5.19,3.92,14.51,3.92ZM823.3,117.14h10.51V227H823.75v-15.4a32.06,32.06,0,0,1-12.51,12,36.69,36.69,0,0,1-17.53,4.15h0a39.47,39.47,0,0,1-19.84-5A36,36,0,0,1,760,208.59a41.54,41.54,0,0,1-5-20.57h0a41.59,41.59,0,0,1,5-20.57,35.49,35.49,0,0,1,13.91-14,39.94,39.94,0,0,1,19.84-5h0a36.86,36.86,0,0,1,17.09,3.92,32.4,32.4,0,0,1,12.5,11.47h0ZM794.59,218.36a29.15,29.15,0,0,0,14.73-3.77,26.84,26.84,0,0,0,10.36-10.73A32.76,32.76,0,0,0,823.45,188h0a32.72,32.72,0,0,0-3.77-15.83,26.84,26.84,0,0,0-10.36-10.73,29,29,0,0,0-14.73-3.77h0a29.33,29.33,0,0,0-14.87,3.77,26.84,26.84,0,0,0-10.36,10.73A32.72,32.72,0,0,0,765.59,188h0a32.76,32.76,0,0,0,3.77,15.84,26.84,26.84,0,0,0,10.36,10.73,29.43,29.43,0,0,0,14.87,3.77Z"/></g></g></svg>