<svg xmlns="http://www.w3.org/2000/svg" viewBox="0 0 352.35 223.52"><defs><style>.cls-1{fill:#050606;}.cls-2{fill:#55d1df;}.cls-3{fill:#9ff6ff;}.cls-4{fill:#9ff5fe;}.cls-5{fill:#2da9b6;}.cls-6{fill:#2da9b5;}</style></defs><g id="Layer_2" data-name="Layer 2"><g id="Layer_1-2" data-name="Layer 1"><path class="cls-1" d="M82,112.31l2.26,2.55,3.48,3.92c2.61,2.93,5.23,5.85,7.84,8.79,2.77,3.12,5.52,6.26,8.28,9.39.16.18.3.39.53.7.54-1,1-1.77,1.42-2.58l4.9-9.26q5.16-9.79,10.33-19.57L130.72,88q3.36-6.33,6.7-12.66l11.06-20.89q3.3-6.22,6.59-12.47l9.67-18.35c1.33-2.52,2.68-5,4-7.55,1.89-3.55,3.77-7.12,5.68-10.66.95-1.75,2-3.47,3-5.2a1.77,1.77,0,0,1,.27-.24c.11.09.25.15.3.25q2.36,4.68,4.69,9.37,4.32,8.65,8.65,17.31,2.43,4.88,4.87,9.76l10.17,20.37c2.19,4.4,4.4,8.8,6.59,13.2Q216,76.43,219.1,82.6c.15.31.34.61.58,1,6.49-10.79,12.92-21.46,19.44-32.29,1.49,2.13,2.87,4.06,4.22,6,.88,1.29,1.69,2.64,2.55,4,1.9,2.88,3.82,5.76,5.73,8.65L260.8,83.9l5.69,8.68,11,16.8,9.79,14.82q3.24,4.9,6.46,9.83l8.94,13.57q3.24,4.92,6.46,9.84l9,13.67q3.24,4.9,6.47,9.83l8.94,13.57q3.26,5,6.52,9.92L349.05,218c1,1.49,2,3,3,4.45.1.14.17.3.34.61-.45,0-.78.07-1.11.07l-29.57,0q-22.93,0-45.86,0-43.93,0-87.86.12-41.85.06-83.68.09l-90.44.13H1.3c-.38,0-.76,0-1.3-.06.63-.88,1.14-1.61,1.67-2.31,1.46-1.94,2.94-3.86,4.39-5.8,1-1.37,2-2.78,3-4.16,2.16-2.93,4.33-5.84,6.49-8.77q5.05-6.85,10.08-13.7,3.64-5,7.28-9.92l9.95-13.53q3.62-4.92,7.22-9.83l7.61-10.34,7.15-9.75L72.46,125c2.61-3.56,5.22-7.14,7.85-10.69C80.8,113.65,81.37,113.06,82,112.31Zm140.53,52.28-.3.3q-2.85,1.8-5.69,3.61l-10.43,6.7L195.52,182l-10.43,6.71-10.6,6.82-10.15,6.56-10.6,6.82-10.16,6.53c-2.61,1.68-5.23,3.34-7.84,5-.19.12-.34.28-.68.56h1.39l36.32,0c1.86,0,3.71,0,5.57,0a1.49,1.49,0,0,0,1.36-.66c.6-.83,1.24-1.65,1.87-2.46,2.6-3.35,5.19-6.7,7.8-10,3.08-4,6.18-7.92,9.25-11.88s6.31-8.18,9.47-12.26c1.3-1.69,2.65-3.34,4-5,2.16-2.79,4.3-5.58,6.45-8.38l4-5.16.27-.39.11-.24Zm-78.08-30.66-.52-.05.22.27c1.43,1.45,2.83,2.91,4.28,4.33,2.19,2.14,4.4,4.26,6.6,6.39l7.71,7.4,7.42,7.1c.59.56,1.2,1.11,1.79,1.69,1.37,1.34,2.71,2.71,4.1,4.05,1.82,1.75,3.68,3.48,5.5,5.23q3.09,3,6.15,5.94c.74.72,1.45,1.47,2.2,2.18.92.88,1.88,1.73,2.83,2.6.29-.16.51-.26.72-.4l4.75-3.06q5-3.21,10-6.41c3.65-2.35,7.31-4.71,11-7.05,1.35-.86,2.73-1.68,4.07-2.55,1.07-.69,2.11-1.43,3.15-2.13.44.25.79.42,1.12.63,2.76,1.7,5.51,3.41,8.28,5.1q5.65,3.44,11.34,6.85l8.35,5,1.74,1q3.42,2.07,6.82,4.16c.47-.57.92-1.12,1.38-1.66,1.46-1.71,2.91-3.42,4.37-5.12a1.09,1.09,0,0,0,.25-1.16c-.39-1.22-.68-2.47-1-3.71l-4-14.76q-5.36-20-10.73-40l-7.06-26.32q-2.68-10-5.38-20l-3.21-12a4.28,4.28,0,0,0-.28-.6c-.74,1.18-1.42,2.26-2.08,3.35q-4.36,7.29-8.73,14.59c-2.13,3.55-4.26,7.09-6.42,10.62a1.08,1.08,0,0,0,0,1.25c1.24,2.33,2.43,4.68,3.64,7,1.94,3.77,3.87,7.54,5.82,11.31,1.49,2.87,3,5.73,4.51,8.61,2.54,4.9,5.06,9.82,7.6,14.72,2,3.92,4.09,7.83,6.12,11.75q3.18,6.12,6.34,12.24c1.25,2.41,2.49,4.81,3.71,7.23.36.71.66,1.45,1,2.32-.49-.08-.8-.11-1.11-.18l-3.74-.9-12-3-14.1-3.49L215.36,151l-13-3.21-14.31-3.53c-3.29-.8-6.59-1.55-9.87-2.37-1.65-.42-3.26-1-4.91-1.43-4.09-1-8.18-1.91-12.28-2.84-3.89-.88-7.79-1.73-11.68-2.6Zm29.15,4.43c0-.35.08-.56.09-.76.07-3.25.15-6.5.22-9.75q.11-5.13.19-10.28c.09-4.49.16-9,.24-13.49s.14-9,.23-13.49c.13-6.32.28-12.64.41-19,.07-3.61.14-7.21.2-10.82q.12-6.1.23-12.21c.06-3.49.14-7,.2-10.49q.12-6.59.23-13.17c.08-4.75.18-9.5.26-14.24,0-1.08,0-2.17,0-3.25a1.94,1.94,0,0,0-.67.75c-1,1.79-1.92,3.58-2.86,5.37q-3.83,7.23-7.62,14.47-3.42,6.48-6.85,13L150.9,54.6l-7.14,13.51-7.09,13.42-7,13.32Q127,99.91,124.26,105q-4.44,8.42-8.89,16.82-3.95,7.47-7.93,14.92c-.81,1.53-1.66,3-2.59,4.74L83.23,117l-.25.07q-1,34.17-2,68.33c0,.81,0,1.62,0,2.42l.26.08c2-2.63,3.76-5.4,5.66-8.09s3.81-5.48,5.82-8.38l5.19,6.17c1.53-1.66,3-3.23,4.42-4.81l7.74-8.57,7-7.76c1.72-1.9,3.42-3.81,5.15-5.7,1.44-1.58,2.92-3.12,4.36-4.71,2.61-2.87,5.2-5.77,7.81-8.64,1.92-2.11,3.86-4.2,5.77-6.31a.86.86,0,0,1,.94-.32c.79.22,1.57.47,2.37.65q7.48,1.74,15,3.45c3.79.86,7.58,1.69,11.37,2.55C171.09,137.71,172.28,138,173.61,138.36ZM178.55,6.42l-.22.08c0,.24,0,.48-.05.73q-.21,10.54-.42,21.09-.24,12.81-.45,25.6c0,1.79,0,3.58-.08,5.36-.1,5.36-.23,10.71-.33,16.07-.11,5.92-.19,11.85-.3,17.78-.18,8.71-.38,17.42-.55,26.13q-.15,7.27-.26,14.57c0,1.39,0,2.78,0,4.17,0,1-.07,1,.88,1.28l8.8,2.21,13.8,3.42,13.8,3.4,13.59,3.35,4.68,1.13,14.73,3.63,7.56,1.91,2.38.57c-1.48-2.88-2.85-5.58-4.24-8.26-1.54-3-3.11-5.93-4.65-8.91-1.93-3.73-3.84-7.48-5.77-11.21-2.05-4-4.13-7.89-6.18-11.84-2.53-4.87-5-9.75-7.55-14.62-2.34-4.53-4.71-9-7-13.57s-4.59-9.09-6.87-13.64q-3.57-7.12-7.13-14.24c-1.95-3.89-3.92-7.76-5.86-11.65q-6-12.1-12-24.22c-2-4-4.07-8.09-6.1-12.13-.75-1.5-1.47-3-2.22-4.51C179.82,8.87,179.18,7.64,178.55,6.42Zm62.86,52.12-.21,0a4.31,4.31,0,0,0,.1.61l5,18.77c1.49,5.53,3,11.07,4.45,16.6q3.63,13.51,7.25,27,2.59,9.59,5.19,19.18,2.38,8.86,4.75,17.74c1.18,4.43,2.41,8.86,3.53,13.31a7.41,7.41,0,0,0,2.61,4.23c2.29,1.86,4.43,3.9,6.63,5.87l7.82,6.94c2.19,1.94,4.39,3.86,6.57,5.8,2.89,2.58,5.76,5.19,8.65,7.78q3.49,3.13,7,6.25,3.94,3.5,7.92,7c1.71,1.5,3.45,3,5.14,4.5a2.22,2.22,0,0,0,1.61.65c3.25,0,6.5,0,9.75,0l12,0c.26,0,.52,0,.89-.09-.67-1-1.25-2-1.85-2.88L339.8,208q-3.41-5.18-6.82-10.36l-6.46-9.82-8.81-13.4L311,164.23l-7.36-11.15-8-12.24q-3.32-5.06-6.64-10.09-4.43-6.69-8.82-13.39c-2.2-3.34-4.38-6.68-6.57-10q-3.58-5.45-7.19-10.88L263,91.39c-1.72-2.62-3.42-5.26-5.14-7.87-1.27-1.94-2.57-3.86-3.85-5.79-1.7-2.59-3.38-5.2-5.08-7.79-1.3-2-2.61-4-3.93-6C243.82,62.15,242.61,60.34,241.41,58.54ZM132.83,219.75l8-5.17,10-6.47,10.58-6.83,5.12-3.29L177,191.23l5.21-3.35,7.83-5c.24-.14.45-.32.74-.53L140.61,134c-1.09,1.17-2.15,2.28-3.17,3.42-2.36,2.61-4.7,5.25-7.06,7.87q-3.07,3.4-6.17,6.8c-2,2.19-4,4.36-6,6.55-2.38,2.61-4.74,5.23-7.11,7.84-1.7,1.87-3.38,3.75-5.08,5.62-1.56,1.72-3.14,3.42-4.7,5.13-.66.72-1.3,1.47-1.94,2.19.72.91,1.38,1.75,2,2.57l8.46,10.18c1.81,2.19,3.6,4.4,5.42,6.59q4.34,5.21,8.68,10.41c1.77,2.14,3.51,4.3,5.28,6.43C130.44,217,131.62,218.32,132.83,219.75ZM80.8,117.8l-.25-.09-2.87,3.94-7.34,10L62.87,141.8,55.41,152l-7.35,10-10,13.53q-3.63,5-7.27,9.91L23.05,196c-1.34,1.8-2.69,3.59-4,5.4-2.74,3.74-5.45,7.49-8.19,11.22-2,2.67-3.94,5.33-5.91,8-.11.16-.2.33-.38.63H46.89c3.5,0,7-.06,10.5-.06a1.44,1.44,0,0,0,1.41-.72c.54-.87,1.14-1.71,1.73-2.56q3.47-5,6.94-10,5.43-7.8,10.87-15.6a2.39,2.39,0,0,0,.47-1.38c0-2,.12-4.07.17-6.1q.12-4.81.23-9.63c0-1.29,0-2.57.07-3.86.1-3.17.25-6.34.34-9.52s.15-6.42.22-9.63c0-1.32,0-2.64.09-4,.1-3.32.23-6.64.33-9.95s.17-6.5.25-9.74l.09-3.86Q80.71,121.22,80.8,117.8ZM182,221h39.34c3.1,0,6.21-.05,9.32-.05a1.52,1.52,0,0,0,1.33-.66c1.56-1.93,3.16-3.83,4.77-5.73s3-3.52,4.48-5.29c2.41-2.86,4.79-5.72,7.2-8.58,1.55-1.85,3.14-3.68,4.69-5.53,2.18-2.59,4.34-5.19,6.51-7.78l2.88-3.43-4.27-2.64c-2.31-1.41-4.63-2.79-6.94-4.2-1.4-.84-2.79-1.71-4.19-2.55l-11.62-7c-1.67-1-3.34-2-5-3-1.07-.64-2.14-1.25-3.24-1.89-.27.31-.48.55-.68.8l-6.52,8.46-5.16,6.67-10.6,13.67c-2.31,3-4.65,5.94-7,8.92l-2.69,3.46L185,217C184.06,218.3,183.11,219.57,182,221Zm90.47-43.5c-1.44,14.22-2.86,28.22-4.27,42.21,0,.34,0,.69,0,1a3.2,3.2,0,0,0,.53.09l52.05-.06s.05,0,.07-.07a.3.3,0,0,0,0-.1c-.91-.83-1.83-1.68-2.75-2.5l-7.73-6.88-7.4-6.62-7.66-6.81L288,191.29l-9.51-8.42ZM130.89,221a2.32,2.32,0,0,0-.18-.38q-3.84-4.65-7.69-9.31-4.14-5-8.31-10c-1.86-2.25-3.71-4.51-5.58-6.75-2.84-3.43-5.69-6.84-8.53-10.27-1.82-2.19-3.62-4.39-5.43-6.59-.33-.4-.71-.76-1.17-1.26a6.43,6.43,0,0,0-.15.88c.07,1.67.15,3.34.23,5,.18,4,.38,8.05.55,12.08s.31,8.27.46,12.41.31,8.27.48,12.41c0,.59.11,1.18.17,1.78ZM93.5,221a10.72,10.72,0,0,0,0-1.1c0-.92-.13-1.84-.17-2.77-.14-3.38-.27-6.77-.41-10.15-.09-2.57-.17-5.14-.28-7.7-.18-4.1-.39-8.2-.56-12.29-.12-2.89-.19-5.78-.29-8.67a13.2,13.2,0,0,0-.19-1.4c-.33.43-.51.64-.66.86-1,1.41-1.92,2.83-2.89,4.24-2.35,3.4-4.69,6.8-7,10.2l-8.13,11.67q-4.89,7-9.76,14c-.68,1-1.34,2-2,3C62.09,221.28,91.08,221.32,93.5,221Zm176.74-42.29-.32-.15a2.71,2.71,0,0,1-.21.37l-5.28,6.29q-2.9,3.44-5.78,6.86t-5.63,6.7c-1.88,2.23-3.75,4.47-5.64,6.7q-4.44,5.27-8.9,10.51l-3.66,4.33a3.53,3.53,0,0,0-.33.58c.66,0,1.22.12,1.77.12l20-.08,8.56,0c.38,0,.75-.06,1.14-.09C267.41,206.68,268.82,192.68,270.24,178.68Z"/><path class="cls-2" d="M173.61,138.36c-1.33-.33-2.52-.65-3.73-.92-3.79-.86-7.58-1.69-11.37-2.55q-7.5-1.71-15-3.45c-.8-.18-1.58-.43-2.37-.65a.86.86,0,0,0-.94.32c-1.91,2.11-3.85,4.2-5.77,6.31-2.61,2.87-5.2,5.77-7.81,8.64-1.44,1.59-2.92,3.13-4.36,4.71-1.73,1.89-3.43,3.8-5.15,5.7l-7,7.76-7.74,8.57c-1.44,1.58-2.89,3.15-4.42,4.81l-5.19-6.17c-2,2.9-3.9,5.65-5.82,8.38s-3.68,5.46-5.66,8.09l-.26-.08c0-.8,0-1.61,0-2.42q1-34.15,2-68.33l.25-.07,21.62,24.42c.93-1.7,1.78-3.21,2.59-4.74q4-7.45,7.93-14.92,4.45-8.4,8.89-16.82,2.68-5.06,5.36-10.1l7-13.32,7.09-13.42L150.9,54.6,158.11,41q3.44-6.47,6.85-12.95,3.81-7.23,7.62-14.47c.94-1.79,1.9-3.58,2.86-5.37a1.94,1.94,0,0,1,.67-.75c0,1.08,0,2.17,0,3.25-.08,4.74-.18,9.49-.26,14.24q-.12,6.59-.23,13.17c-.06,3.5-.14,7-.2,10.49q-.12,6.11-.23,12.21c-.06,3.61-.13,7.21-.2,10.82-.13,6.31-.28,12.63-.41,19q-.14,6.75-.23,13.49c-.08,4.5-.15,9-.24,13.49q-.09,5.15-.19,10.28c-.07,3.25-.15,6.5-.22,9.75C173.69,137.8,173.65,138,173.61,138.36Z"/><path class="cls-3" d="M178.55,6.42c.63,1.22,1.27,2.45,1.88,3.68.75,1.5,1.47,3,2.22,4.51,2,4,4.08,8.08,6.1,12.13q6,12.11,12,24.22c1.94,3.89,3.91,7.76,5.86,11.65q3.57,7.11,7.13,14.24,3.42,6.83,6.87,13.64c2.32,4.53,4.69,9,7,13.57,2.52,4.87,5,9.75,7.55,14.62,2.05,3.95,4.13,7.89,6.18,11.84,1.93,3.73,3.84,7.48,5.77,11.21,1.54,3,3.11,5.94,4.65,8.91,1.39,2.68,2.76,5.38,4.24,8.26l-2.38-.57-7.56-1.91-14.73-3.63-4.68-1.13-13.59-3.35-13.8-3.4-13.8-3.42-8.8-2.21c-.95-.24-.91-.24-.88-1.28,0-1.39,0-2.78,0-4.17q.12-7.29.26-14.57c.17-8.71.37-17.42.55-26.13.11-5.93.19-11.86.3-17.78.1-5.36.23-10.71.33-16.07,0-1.78,0-3.57.08-5.36q.21-12.8.45-25.6.19-10.55.42-21.09c0-.25,0-.49.05-.73Z"/><path class="cls-4" d="M241.41,58.54c1.2,1.8,2.41,3.61,3.6,5.41,1.32,2,2.63,4,3.93,6,1.7,2.59,3.38,5.2,5.08,7.79,1.28,1.93,2.58,3.85,3.85,5.79,1.72,2.61,3.42,5.25,5.14,7.87l3.38,5.07q3.6,5.45,7.19,10.88c2.19,3.34,4.37,6.68,6.57,10q4.39,6.69,8.82,13.39,3.31,5,6.64,10.09l8,12.24L311,164.23l6.71,10.18,8.81,13.4,6.46,9.82q3.4,5.19,6.82,10.36l6.46,9.83c.6.92,1.18,1.85,1.85,2.88-.37,0-.63.09-.89.09l-12,0c-3.25,0-6.5,0-9.75,0a2.22,2.22,0,0,1-1.61-.65c-1.69-1.53-3.43-3-5.14-4.5q-4-3.49-7.92-7-3.51-3.12-7-6.25c-2.89-2.59-5.76-5.2-8.65-7.78-2.18-1.94-4.38-3.86-6.57-5.8l-7.82-6.94c-2.2-2-4.34-4-6.63-5.87a7.41,7.41,0,0,1-2.61-4.23c-1.12-4.45-2.35-8.88-3.53-13.31q-2.37-8.88-4.75-17.74-2.58-9.6-5.19-19.18-3.63-13.52-7.25-27c-1.49-5.53-3-11.07-4.45-16.6l-5-18.77a4.31,4.31,0,0,1-.1-.61Z"/><path class="cls-3" d="M132.83,219.75c-1.21-1.43-2.39-2.8-3.55-4.2-1.77-2.13-3.51-4.29-5.28-6.43q-4.34-5.22-8.68-10.41c-1.82-2.19-3.61-4.4-5.42-6.59l-8.46-10.18c-.67-.82-1.33-1.66-2-2.57.64-.72,1.28-1.47,1.94-2.19,1.56-1.71,3.14-3.41,4.7-5.13,1.7-1.87,3.38-3.75,5.08-5.62,2.37-2.61,4.73-5.23,7.11-7.84,2-2.19,4-4.36,6-6.55s4.12-4.53,6.17-6.8c2.36-2.62,4.7-5.26,7.06-7.87,1-1.14,2.08-2.25,3.17-3.42l50.2,48.4c-.29.21-.5.39-.74.53l-7.83,5L177,191.23,166.54,198l-5.12,3.29-10.58,6.83-10,6.47Z"/><path class="cls-2" d="M144.46,133.93l4.88,1.13c3.89.87,7.79,1.72,11.68,2.6,4.1.93,8.19,1.86,12.28,2.84,1.65.4,3.26,1,4.91,1.43,3.28.82,6.58,1.57,9.87,2.37l14.31,3.53,13,3.21,13.58,3.35,14.1,3.49,12,3,3.74.9c.31.07.62.1,1.11.18-.38-.87-.68-1.61-1-2.32-1.22-2.42-2.46-4.82-3.71-7.23q-3.16-6.12-6.34-12.24c-2-3.92-4.09-7.83-6.12-11.75-2.54-4.9-5.06-9.82-7.6-14.72-1.49-2.88-3-5.74-4.51-8.61-2-3.77-3.88-7.54-5.82-11.31-1.21-2.34-2.4-4.69-3.64-7a1.08,1.08,0,0,1,0-1.25c2.16-3.53,4.29-7.07,6.42-10.62q4.38-7.29,8.73-14.59c.66-1.09,1.34-2.17,2.08-3.35a4.28,4.28,0,0,1,.28.6l3.21,12q2.68,10,5.38,20l7.06,26.32q5.37,20,10.73,40l4,14.76c.33,1.24.62,2.49,1,3.71a1.09,1.09,0,0,1-.25,1.16c-1.46,1.7-2.91,3.41-4.37,5.12-.46.54-.91,1.09-1.38,1.66q-3.4-2.08-6.82-4.16l-1.74-1-8.35-5q-5.67-3.42-11.34-6.85c-2.77-1.69-5.52-3.4-8.28-5.1-.33-.21-.68-.38-1.12-.63-1,.7-2.08,1.44-3.15,2.13-1.34.87-2.72,1.69-4.07,2.55-3.66,2.34-7.32,4.7-11,7.05q-5,3.19-10,6.41l-4.75,3.06c-.21.14-.43.24-.72.4-1-.87-1.91-1.72-2.83-2.6-.75-.71-1.46-1.46-2.2-2.18q-3.06-3-6.15-5.94c-1.82-1.75-3.68-3.48-5.5-5.23-1.39-1.34-2.73-2.71-4.1-4.05-.59-.58-1.2-1.13-1.79-1.69l-7.42-7.1-7.71-7.4c-2.2-2.13-4.41-4.25-6.6-6.39-1.45-1.42-2.85-2.88-4.28-4.33Z"/><path class="cls-4" d="M80.8,117.8q-.09,3.42-.2,6.84l-.09,3.86c-.08,3.24-.15,6.49-.25,9.74s-.23,6.63-.33,9.95c-.05,1.32-.06,2.64-.09,4-.07,3.21-.13,6.42-.22,9.63s-.24,6.35-.34,9.52c0,1.29,0,2.57-.07,3.86q-.1,4.82-.23,9.63c0,2-.12,4.07-.17,6.1a2.39,2.39,0,0,1-.47,1.38q-5.46,7.78-10.87,15.6-3.48,5-6.94,10c-.59.85-1.19,1.69-1.73,2.56a1.44,1.44,0,0,1-1.41.72c-3.5,0-7,.05-10.5.06H4.55c.18-.3.27-.47.38-.63,2-2.66,4-5.32,5.91-8,2.74-3.73,5.45-7.48,8.19-11.22,1.33-1.81,2.68-3.6,4-5.4l7.79-10.59q3.65-4.95,7.27-9.91l10-13.53,7.35-10,7.46-10.16,7.47-10.15,7.34-10,2.87-3.94Z"/><path class="cls-4" d="M182,221c1.08-1.43,2-2.7,3-4l9.62-12.42,2.69-3.46c2.32-3,4.66-5.94,7-8.92l10.6-13.67,5.16-6.67,6.52-8.46c.2-.25.41-.49.68-.8,1.1.64,2.17,1.25,3.24,1.89,1.67,1,3.34,2,5,3l11.62,7c1.4.84,2.79,1.71,4.19,2.55,2.31,1.41,4.63,2.79,6.94,4.2l4.27,2.64-2.88,3.43c-2.17,2.59-4.33,5.19-6.51,7.78-1.55,1.85-3.14,3.68-4.69,5.53-2.41,2.86-4.79,5.72-7.2,8.58-1.49,1.77-3,3.52-4.48,5.29s-3.21,3.8-4.77,5.73a1.52,1.52,0,0,1-1.33.66c-3.11,0-6.22.05-9.32.05H182Z"/><path class="cls-5" d="M222.46,165.15l-4,5.16c-2.15,2.8-4.29,5.59-6.45,8.38-1.31,1.69-2.66,3.34-4,5-3.16,4.08-6.3,8.18-9.47,12.26s-6.17,7.92-9.25,11.88c-2.61,3.35-5.2,6.7-7.8,10-.63.81-1.27,1.63-1.87,2.46a1.49,1.49,0,0,1-1.36.66c-1.86,0-3.71,0-5.57,0l-36.32,0h-1.39c.34-.28.49-.44.68-.56,2.61-1.67,5.23-3.33,7.84-5l10.16-6.53,10.6-6.82,10.15-6.56,10.6-6.82L195.52,182l10.6-6.83,10.43-6.7q2.83-1.81,5.69-3.61Z"/><path class="cls-2" d="M272.5,177.5l6,5.37,9.51,8.42,7.35,6.52,7.66,6.81,7.4,6.62,7.73,6.88c.92.82,1.84,1.67,2.75,2.5a.3.3,0,0,1,0,.1s0,.07-.07.07l-52.05.06a3.2,3.2,0,0,1-.53-.09c0-.36,0-.71,0-1C269.64,205.72,271.06,191.72,272.5,177.5Z"/><path class="cls-2" d="M130.89,221H95.74c-.06-.6-.15-1.19-.17-1.78-.17-4.14-.32-8.28-.48-12.41s-.29-8.28-.46-12.41-.37-8.06-.55-12.08c-.08-1.68-.16-3.35-.23-5a6.43,6.43,0,0,1,.15-.88c.46.5.84.86,1.17,1.26,1.81,2.2,3.61,4.4,5.43,6.59,2.84,3.43,5.69,6.84,8.53,10.27,1.87,2.24,3.72,4.5,5.58,6.75q4.16,5,8.31,10,3.86,4.65,7.69,9.31A2.32,2.32,0,0,1,130.89,221Z"/><path class="cls-6" d="M93.5,221c-2.42.35-31.41.31-32.35-.05.67-1,1.33-2,2-3q4.88-7,9.76-14l8.13-11.67c2.36-3.4,4.7-6.8,7-10.2,1-1.41,1.92-2.83,2.89-4.24.15-.22.33-.43.66-.86a13.2,13.2,0,0,1,.19,1.4c.1,2.89.17,5.78.29,8.67.17,4.09.38,8.19.56,12.29.11,2.56.19,5.13.28,7.7.14,3.38.27,6.77.41,10.15,0,.93.13,1.85.17,2.77A10.72,10.72,0,0,1,93.5,221Z"/><path class="cls-6" d="M270.24,178.68c-1.42,14-2.83,28-4.26,42.11-.39,0-.76.09-1.14.09l-8.56,0-20,.08c-.55,0-1.11-.07-1.77-.12a3.53,3.53,0,0,1,.33-.58l3.66-4.33q4.46-5.25,8.9-10.51c1.89-2.23,3.76-4.47,5.64-6.7s3.75-4.47,5.63-6.7,3.85-4.57,5.78-6.86l5.28-6.29a2.71,2.71,0,0,0,.21-.37Z"/><path class="cls-2" d="M144.16,134.15l-.22-.27.52.05Z"/><path class="cls-5" d="M222.24,164.89l.3-.3.19.17-.27.39Z"/><path class="cls-5" d="M222.54,164.59l.3-.07a2.56,2.56,0,0,1-.11.24Z"/></g></g></svg>