<svg xmlns="http://www.w3.org/2000/svg" xmlns:xlink="http://www.w3.org/1999/xlink" viewBox="0 0 900.02 661.18"><defs><style>.cls-1{fill:url(#linear-gradient);}.cls-2{fill:url(#linear-gradient-2);}.cls-3{fill:url(#linear-gradient-3);}.cls-4{fill:url(#linear-gradient-4);}.cls-5{fill:url(#linear-gradient-5);}</style><linearGradient id="linear-gradient" x1="-50" y1="830.09" x2="-49" y2="830.09" gradientTransform="matrix(268.93, -242.15, -50.92, -56.54, 55880.33, 35101.01)" gradientUnits="userSpaceOnUse"><stop offset="0" stop-color="#333"/><stop offset="1" stop-color="#333"/></linearGradient><linearGradient id="linear-gradient-2" x1="-50" y1="830.09" x2="-49" y2="830.09" gradientTransform="matrix(268.93, -242.15, -50.92, -56.54, 56018.98, 35097.16)" gradientUnits="userSpaceOnUse"><stop offset="0" stop-color="#444"/><stop offset="1" stop-color="#444"/></linearGradient><linearGradient id="linear-gradient-3" x1="-50" y1="830.09" x2="-49" y2="830.09" gradientTransform="matrix(268.93, -242.15, -50.92, -56.54, 56165.32, 35097.16)" gradientUnits="userSpaceOnUse"><stop offset="0" stop-color="#555"/><stop offset="1" stop-color="#555"/></linearGradient><linearGradient id="linear-gradient-4" x1="-50" y1="830.09" x2="-49" y2="830.09" gradientTransform="matrix(900.02, 0, 0, -153.85, 45000.96, 128166.74)" xlink:href="#linear-gradient"/><linearGradient id="linear-gradient-5" x1="-50" y1="830.09" x2="-49" y2="830.09" gradientTransform="matrix(890.25, 0, 0, -105.49, 44516.18, 88176.8)" xlink:href="#linear-gradient"/></defs><g id="Layer_2" data-name="Layer 2"><g id="Layer_1-2" data-name="Layer 1"><polygon class="cls-1" points="405.89 107.97 189.81 302.54 191.73 198.42 407.81 3.85 405.89 107.97"/><polygon class="cls-2" points="544.53 104.12 328.45 298.69 330.37 194.56 546.46 0 544.53 104.12"/><polygon class="cls-3" points="690.88 104.12 474.79 298.69 476.71 194.56 692.8 0 690.88 104.12"/><path class="cls-4" d="M92.24,529.22l-43.14-53L31,495.14v34.08H0V394.43H31v63l59.69-63h34.67L69.51,454.51l59.12,74.71Zm119.19-103.6h30v103.6H213V516.9a39.94,39.94,0,0,1-14.25,10.3,44.91,44.91,0,0,1-17.91,3.56h0q-20.42,0-32.35-11.74t-11.94-34.86h0V425.62h30v54.11q0,25,21,25h0q10.78,0,17.33-7t6.55-20.9h0Zm86.65,13.68a33.38,33.38,0,0,1,14.54-11.37,54.07,54.07,0,0,1,21.08-3.85h0v27.73q-5-.37-6.74-.38h0q-12.9,0-20.21,7.22t-7.32,21.66h0v48.91h-30V425.62h28.69Zm114.77-15.22a52.81,52.81,0,0,1,26.28,6.65,47.68,47.68,0,0,1,18.58,18.68q6.74,12,6.74,28h0q0,16-6.74,28a47.74,47.74,0,0,1-18.58,18.68,52.8,52.8,0,0,1-26.28,6.64h0q-21.37,0-32.55-13.48h0v11.94H351.61V386.34h30V436.6q11.36-12.51,31.2-12.52Zm-5.2,82q11.55,0,19-7.79t7.42-20.9h0q0-13.1-7.42-20.89t-19-7.8h0q-11.56,0-19,7.8t-7.41,20.89h0q0,13.09,7.41,20.9t19,7.79Zm123.23,25.42A110.21,110.21,0,0,1,500,527.2q-14.93-4.34-24-11.27h0l10.59-23.49a71.91,71.91,0,0,0,20.61,10.21,77.33,77.33,0,0,0,23.88,3.85h0q13.27,0,19.64-3.95t6.35-10.49h0a10,10,0,0,0-3.75-8,28.68,28.68,0,0,0-9.63-5.11q-5.88-1.92-15.89-4.23h0a219,219,0,0,1-25.22-7.32,40.87,40.87,0,0,1-16.85-11.75q-7-8.09-7-21.56h0a37.56,37.56,0,0,1,6.35-21.28q6.36-9.54,19.16-15.12t31.29-5.58h0a103.81,103.81,0,0,1,25.23,3.08,74.51,74.51,0,0,1,21.57,8.86h0l-9.63,23.68Q554,417.15,535.31,417.15h0q-13.09,0-19.35,4.24t-6.26,11.17h0q0,6.93,7.22,10.3T539,449.5h0a219.82,219.82,0,0,1,25.23,7.32A41.79,41.79,0,0,1,581,468.37q7,7.9,7,21.38h0a36.79,36.79,0,0,1-6.45,21.08q-6.45,9.54-19.35,15.12t-31.39,5.58Zm76.45-2.31V425.62h30v103.6Zm15-118q-8.28,0-13.48-4.81a15.6,15.6,0,0,1-5.2-11.94h0a15.6,15.6,0,0,1,5.2-11.94q5.21-4.82,13.48-4.81h0q8.28,0,13.48,4.62a14.83,14.83,0,0,1,5.2,11.55h0a16.36,16.36,0,0,1-5.2,12.42q-5.21,4.92-13.48,4.91Zm118.42-24.84h30V529.22H742.12V517.28q-11.18,13.49-32.35,13.48h0a53.76,53.76,0,0,1-26.48-6.55,46.88,46.88,0,0,1-18.58-18.67Q658,493.41,658,477.42h0q0-16,6.74-28.11a46.91,46.91,0,0,1,18.58-18.68,53.86,53.86,0,0,1,26.48-6.55h0q19.83,0,31,12.52h0ZM715,506.11a25.14,25.14,0,0,0,18.87-7.79q7.51-7.8,7.51-20.9h0q0-13.1-7.51-20.89a25.11,25.11,0,0,0-18.87-7.8h0q-11.55,0-19.06,7.8t-7.51,20.89h0q0,13.09,7.51,20.9T715,506.11Zm185-28.3q0,.57-.58,8.09H821.07a24.45,24.45,0,0,0,10,15.21q7.89,5.58,19.64,5.58h0a39.68,39.68,0,0,0,14.35-2.41,34.82,34.82,0,0,0,11.65-7.6h0l16,17.33Q878.06,530.76,850,530.76h0q-17.52,0-31-6.83a50.12,50.12,0,0,1-20.8-19,52.35,52.35,0,0,1-7.31-27.54h0A52.88,52.88,0,0,1,798.06,450a50.56,50.56,0,0,1,19.83-19.06,58.2,58.2,0,0,1,28.21-6.84h0a57.85,57.85,0,0,1,27.54,6.55A47.84,47.84,0,0,1,893,449.41q7,12.22,7,28.4Zm-53.73-31q-10.2,0-17.13,5.77t-8.48,15.79h51a24.85,24.85,0,0,0-8.47-15.69,25.3,25.3,0,0,0-17-5.87Z"/><path class="cls-5" d="M34.22,579.46a30.37,30.37,0,0,1,15,3.75,26.91,26.91,0,0,1,10.53,10.6,31.33,31.33,0,0,1,3.82,15.58h0A31.36,31.36,0,0,1,59.78,625a27.23,27.23,0,0,1-10.53,10.65,30,30,0,0,1-15,3.81h0a27.68,27.68,0,0,1-13.28-3.14,24.27,24.27,0,0,1-9.47-9.08h0v11.66H3.84V555.69h8v35.42a24.56,24.56,0,0,1,9.48-8.68,27.84,27.84,0,0,1,12.94-3Zm-.56,52.91a22.29,22.29,0,0,0,11.21-2.86,20.11,20.11,0,0,0,7.91-8.13,24.8,24.8,0,0,0,2.86-12h0a24.84,24.84,0,0,0-2.86-12,20.15,20.15,0,0,0-7.91-8.12,22.29,22.29,0,0,0-11.21-2.86h0a22.18,22.18,0,0,0-11.26,2.86,20.2,20.2,0,0,0-7.85,8.12,24.72,24.72,0,0,0-2.86,12h0a24.68,24.68,0,0,0,2.86,12,20.17,20.17,0,0,0,7.85,8.13,22.18,22.18,0,0,0,11.26,2.86Zm86.21-52.47h7.85l-29.48,66q-3.58,8.29-8.3,11.77a18.57,18.57,0,0,1-11.32,3.47h0a23.29,23.29,0,0,1-8-1.34,17.28,17.28,0,0,1-6.39-4h0l3.7-5.94a14.68,14.68,0,0,0,10.76,4.48h0a10.82,10.82,0,0,0,6.9-2.24q2.85-2.24,5.32-7.62h0l2.58-5.72L67.18,579.9h8.3L97.68,630Zm108.75,59-9.42-21H175.48l-9.42,21h-8.63L193.3,560.4h8.19l35.87,78.47Zm-50.11-27.69h37.66L197.34,569Zm77.8-19.73a19.31,19.31,0,0,1,8.35-9q5.55-3,13.73-3h0v7.73l-1.9-.11q-9.32,0-14.58,5.72t-5.27,16h0v30h-7.95v-59h7.62Zm60.31,48A31.8,31.8,0,0,1,301,635.62a27.59,27.59,0,0,1-10.81-10.7,30.83,30.83,0,0,1-3.93-15.53h0a30.47,30.47,0,0,1,3.93-15.47A27.67,27.67,0,0,1,301,583.27a31.8,31.8,0,0,1,15.64-3.81h0a30.27,30.27,0,0,1,13.62,3,22.63,22.63,0,0,1,9.48,8.68h0l-6,4a18.6,18.6,0,0,0-7.39-6.56,22.06,22.06,0,0,0-9.76-2.18h0a23,23,0,0,0-11.49,2.86,20.08,20.08,0,0,0-8,8.12,24.84,24.84,0,0,0-2.86,12h0a24.73,24.73,0,0,0,2.86,12.05,20.14,20.14,0,0,0,8,8.07,23,23,0,0,0,11.49,2.86h0a22.45,22.45,0,0,0,9.76-2.13,18.15,18.15,0,0,0,7.39-6.5h0l6,4a22.55,22.55,0,0,1-9.53,8.69,30.41,30.41,0,0,1-13.57,3Zm67.6-9.86,2.81,5.72a15.23,15.23,0,0,1-5.55,3.08,22.42,22.42,0,0,1-6.9,1.06h0q-8.29,0-12.78-4.48t-4.48-12.67h0V586.63H346.78V579.9h10.54V567h8V579.9h17.93v6.73H365.28v35.2q0,5.28,2.63,8t7.57,2.74h0a14.71,14.71,0,0,0,4.76-.78,11.73,11.73,0,0,0,4-2.24Zm17.27,9.3v-59h8v59Zm4-71.86a5.63,5.63,0,0,1-4.14-1.68,5.48,5.48,0,0,1-1.69-4h0a5.35,5.35,0,0,1,1.69-3.92,5.63,5.63,0,0,1,4.14-1.68h0a5.74,5.74,0,0,1,4.15,1.62,5.22,5.22,0,0,1,1.68,3.87h0a5.74,5.74,0,0,1-5.83,5.83Zm50.56,72.42a31.74,31.74,0,0,1-15.63-3.81,27.55,27.55,0,0,1-10.82-10.7,30.83,30.83,0,0,1-3.93-15.53h0a30.47,30.47,0,0,1,3.93-15.47,27.63,27.63,0,0,1,10.82-10.65,31.74,31.74,0,0,1,15.63-3.81h0a30.31,30.31,0,0,1,13.63,3,22.67,22.67,0,0,1,9.47,8.68h0l-5.94,4a18.7,18.7,0,0,0-7.4-6.56,22.06,22.06,0,0,0-9.76-2.18h0a23,23,0,0,0-11.49,2.86,20.08,20.08,0,0,0-8,8.12,24.84,24.84,0,0,0-2.86,12h0a24.73,24.73,0,0,0,2.86,12.05,20.14,20.14,0,0,0,8,8.07,23,23,0,0,0,11.49,2.86h0a22.45,22.45,0,0,0,9.76-2.13,18.24,18.24,0,0,0,7.4-6.5h0l5.94,4a22.55,22.55,0,0,1-9.53,8.69,30.41,30.41,0,0,1-13.57,3Zm85-.56v-71.3H513.48V560.4h63.46v7.17H549.36v71.3Zm77.47-59.41q11.1,0,17.65,6.44t6.56,18.78h0v34.19h-8V605.46q0-9.18-4.59-14t-13.12-4.82h0q-9.52,0-15.08,5.66t-5.55,15.64h0v30.94h-8V555.69h8v34.53a21.61,21.61,0,0,1,9-8,29.43,29.43,0,0,1,13.12-2.8Zm53.47,12a19.33,19.33,0,0,1,8.36-9q5.53-3,13.73-3h0v7.73l-1.91-.11q-9.3,0-14.57,5.72t-5.27,16h0v30h-8v-59H672Zm87.33,17.94-.11,2.46H709.9A21.06,21.06,0,0,0,717,626.71q6.39,5.65,16.14,5.66h0a25.4,25.4,0,0,0,10.09-2,22,22,0,0,0,8-5.77h0l4.49,5.15a25.37,25.37,0,0,1-9.81,7.18,33.28,33.28,0,0,1-13,2.46h0a32.82,32.82,0,0,1-16.09-3.86,27.93,27.93,0,0,1-10.93-10.71,30.49,30.49,0,0,1-3.92-15.47h0a31.63,31.63,0,0,1,3.75-15.47A27.18,27.18,0,0,1,716,583.27a28.78,28.78,0,0,1,14.74-3.81h0a28.48,28.48,0,0,1,14.68,3.81,27,27,0,0,1,10.21,10.59,32,32,0,0,1,3.69,15.53Zm-28.58-23.1a20.09,20.09,0,0,0-14.3,5.44,21.34,21.34,0,0,0-6.55,14.18h41.81a21.34,21.34,0,0,0-6.56-14.18,20.21,20.21,0,0,0-14.4-5.44Zm63.79-6.83q11.54,0,17.71,5.77t6.17,17.1h0v36.54h-7.63v-9.19a18.21,18.21,0,0,1-7.9,7.17,27.68,27.68,0,0,1-12.39,2.58h0q-9.87,0-15.69-4.71A15.17,15.17,0,0,1,769,622.28h0a15.1,15.1,0,0,1,5.43-12.11q5.45-4.59,17.32-4.59h18.73V602q0-7.62-4.26-11.6t-12.45-4h0A31.45,31.45,0,0,0,783,588.26a27.05,27.05,0,0,0-8.86,5.1h0l-3.58-5.94a31.57,31.57,0,0,1,10.76-5.89,41.93,41.93,0,0,1,13.23-2.07Zm-2.81,53.7a20.93,20.93,0,0,0,11.55-3.09,18.39,18.39,0,0,0,7.18-8.91h0v-9.64H792q-15.13,0-15.14,10.54h0a9.63,9.63,0,0,0,3.93,8.12c2.61,2,6.28,3,11,3Zm94.4-77.47h8v83.18h-7.63V627.21a24.2,24.2,0,0,1-9.47,9.08,27.68,27.68,0,0,1-13.28,3.14h0a30,30,0,0,1-15-3.81A27.23,27.23,0,0,1,838.15,625a31.47,31.47,0,0,1-3.82-15.58h0a31.44,31.44,0,0,1,3.82-15.58,26.91,26.91,0,0,1,10.53-10.6,30.37,30.37,0,0,1,15-3.75h0a27.91,27.91,0,0,1,12.95,3,24.6,24.6,0,0,1,9.47,8.68h0Zm-21.75,76.68a22,22,0,0,0,11.15-2.86,20.17,20.17,0,0,0,7.85-8.13,24.68,24.68,0,0,0,2.86-12h0a24.72,24.72,0,0,0-2.86-12,20.2,20.2,0,0,0-7.85-8.12,22,22,0,0,0-11.15-2.86h0a22.22,22.22,0,0,0-11.27,2.86,20.24,20.24,0,0,0-7.84,8.12,24.72,24.72,0,0,0-2.86,12h0a24.68,24.68,0,0,0,2.86,12,20.21,20.21,0,0,0,7.84,8.13,22.22,22.22,0,0,0,11.27,2.86Z"/></g></g></svg>