<svg xmlns="http://www.w3.org/2000/svg" xmlns:xlink="http://www.w3.org/1999/xlink" viewBox="0 0 900.02 531.53"><defs><style>.cls-1{fill:url(#linear-gradient);}.cls-2{fill:url(#linear-gradient-2);}.cls-3{fill:url(#linear-gradient-3);}.cls-4{fill:url(#linear-gradient-4);}</style><linearGradient id="linear-gradient" x1="-50" y1="830.09" x2="-49" y2="830.09" gradientTransform="matrix(268.93, -242.15, -50.92, -56.54, 55880.33, 35101.01)" gradientUnits="userSpaceOnUse"><stop offset="0" stop-color="#333"/><stop offset="1" stop-color="#333"/></linearGradient><linearGradient id="linear-gradient-2" x1="-50" y1="830.09" x2="-49" y2="830.09" gradientTransform="matrix(268.93, -242.15, -50.92, -56.54, 56018.98, 35097.16)" gradientUnits="userSpaceOnUse"><stop offset="0" stop-color="#444"/><stop offset="1" stop-color="#444"/></linearGradient><linearGradient id="linear-gradient-3" x1="-50" y1="830.09" x2="-49" y2="830.09" gradientTransform="matrix(268.93, -242.15, -50.92, -56.54, 56165.32, 35097.16)" gradientUnits="userSpaceOnUse"><stop offset="0" stop-color="#555"/><stop offset="1" stop-color="#555"/></linearGradient><linearGradient id="linear-gradient-4" x1="-50" y1="830.09" x2="-49" y2="830.09" gradientTransform="matrix(900.02, 0, 0, -153.85, 45000.96, 128166.74)" xlink:href="#linear-gradient"/></defs><g id="Layer_2" data-name="Layer 2"><g id="Layer_1-2" data-name="Layer 1"><polygon class="cls-1" points="405.89 107.97 189.81 302.54 191.73 198.42 407.81 3.85 405.89 107.97"/><polygon class="cls-2" points="544.53 104.12 328.45 298.69 330.37 194.56 546.46 0 544.53 104.12"/><polygon class="cls-3" points="690.88 104.12 474.79 298.69 476.71 194.56 692.8 0 690.88 104.12"/><path class="cls-4" d="M92.24,529.22l-43.14-53L31,495.14v34.08H0V394.43H31v63l59.69-63h34.67L69.51,454.51l59.12,74.71Zm119.19-103.6h30v103.6H213V516.9a39.94,39.94,0,0,1-14.25,10.3,44.91,44.91,0,0,1-17.91,3.56h0q-20.42,0-32.35-11.74t-11.94-34.86h0V425.62h30v54.11q0,25,21,25h0q10.78,0,17.33-7t6.55-20.9h0Zm86.65,13.68a33.38,33.38,0,0,1,14.54-11.37,54.07,54.07,0,0,1,21.08-3.85h0v27.73q-5-.37-6.74-.38h0q-12.9,0-20.21,7.22t-7.32,21.66h0v48.91h-30V425.62h28.69Zm114.77-15.22a52.81,52.81,0,0,1,26.28,6.65,47.68,47.68,0,0,1,18.58,18.68q6.74,12,6.74,28h0q0,16-6.74,28a47.74,47.74,0,0,1-18.58,18.68,52.8,52.8,0,0,1-26.28,6.64h0q-21.37,0-32.55-13.48h0v11.94H351.61V386.34h30V436.6q11.36-12.51,31.2-12.52Zm-5.2,82q11.55,0,19-7.79t7.42-20.9h0q0-13.1-7.42-20.89t-19-7.8h0q-11.56,0-19,7.8t-7.41,20.89h0q0,13.09,7.41,20.9t19,7.79Zm123.23,25.42A110.21,110.21,0,0,1,500,527.2q-14.93-4.34-24-11.27h0l10.59-23.49a71.91,71.91,0,0,0,20.61,10.21,77.33,77.33,0,0,0,23.88,3.85h0q13.27,0,19.64-3.95t6.35-10.49h0a10,10,0,0,0-3.75-8,28.68,28.68,0,0,0-9.63-5.11q-5.88-1.92-15.89-4.23h0a219,219,0,0,1-25.22-7.32,40.87,40.87,0,0,1-16.85-11.75q-7-8.09-7-21.56h0a37.56,37.56,0,0,1,6.35-21.28q6.36-9.54,19.16-15.12t31.29-5.58h0a103.81,103.81,0,0,1,25.23,3.08,74.51,74.51,0,0,1,21.57,8.86h0l-9.63,23.68Q554,417.15,535.31,417.15h0q-13.09,0-19.35,4.24t-6.26,11.17h0q0,6.93,7.22,10.3T539,449.5h0a219.82,219.82,0,0,1,25.23,7.32A41.79,41.79,0,0,1,581,468.37q7,7.9,7,21.38h0a36.79,36.79,0,0,1-6.45,21.08q-6.45,9.54-19.35,15.12t-31.39,5.58Zm76.45-2.31V425.62h30v103.6Zm15-118q-8.28,0-13.48-4.81a15.6,15.6,0,0,1-5.2-11.94h0a15.6,15.6,0,0,1,5.2-11.94q5.21-4.82,13.48-4.81h0q8.28,0,13.48,4.62a14.83,14.83,0,0,1,5.2,11.55h0a16.36,16.36,0,0,1-5.2,12.42q-5.21,4.92-13.48,4.91Zm118.42-24.84h30V529.22H742.12V517.28q-11.18,13.49-32.35,13.48h0a53.76,53.76,0,0,1-26.48-6.55,46.88,46.88,0,0,1-18.58-18.67Q658,493.41,658,477.42h0q0-16,6.74-28.11a46.91,46.91,0,0,1,18.58-18.68,53.86,53.86,0,0,1,26.48-6.55h0q19.83,0,31,12.52h0ZM715,506.11a25.14,25.14,0,0,0,18.87-7.79q7.51-7.8,7.51-20.9h0q0-13.1-7.51-20.89a25.11,25.11,0,0,0-18.87-7.8h0q-11.55,0-19.06,7.8t-7.51,20.89h0q0,13.09,7.51,20.9T715,506.11Zm185-28.3q0,.57-.58,8.09H821.07a24.45,24.45,0,0,0,10,15.21q7.89,5.58,19.64,5.58h0a39.68,39.68,0,0,0,14.35-2.41,34.82,34.82,0,0,0,11.65-7.6h0l16,17.33Q878.06,530.76,850,530.76h0q-17.52,0-31-6.83a50.12,50.12,0,0,1-20.8-19,52.35,52.35,0,0,1-7.31-27.54h0A52.88,52.88,0,0,1,798.06,450a50.56,50.56,0,0,1,19.83-19.06,58.2,58.2,0,0,1,28.21-6.84h0a57.85,57.85,0,0,1,27.54,6.55A47.84,47.84,0,0,1,893,449.41q7,12.22,7,28.4Zm-53.73-31q-10.2,0-17.13,5.77t-8.48,15.79h51a24.85,24.85,0,0,0-8.47-15.69,25.3,25.3,0,0,0-17-5.87Z"/></g></g></svg>